<svg width="1495" height="766" viewBox="0 0 1495 766" fill="none" xmlns="http://www.w3.org/2000/svg">
<g clip-path="url(#clip0)">
<rect width="1495" height="766" fill="white"/>
<path d="M28.5251 30.4255C30.8044 31.0378 32.5394 32.0924 33.7301 33.5893C34.9207 35.0521 35.5161 36.8891 35.5161 39.1004C35.5161 42.2302 34.3594 44.6625 32.0461 46.3975C29.7328 48.1325 26.3819 49 21.9934 49H5.05188V13.2798H21.0239C25.0382 13.2798 28.1679 14.0793 30.4132 15.6782C32.6585 17.2771 33.7811 19.5393 33.7811 22.465C33.7811 24.3361 33.3218 25.952 32.4033 27.3127C31.5188 28.6735 30.2261 29.7111 28.5251 30.4255ZM11.5836 28.5374H20.4626C22.6058 28.5374 24.2387 28.1122 25.3613 27.2617C26.484 26.4112 27.0453 25.1525 27.0453 23.4856C27.0453 21.8186 26.484 20.5599 25.3613 19.7094C24.2387 18.8249 22.6058 18.3827 20.4626 18.3827H11.5836V28.5374ZM21.7893 43.8971C26.484 43.8971 28.8313 42.1281 28.8313 38.5901C28.8313 35.1201 26.484 33.3852 21.7893 33.3852H11.5836V43.8971H21.7893Z" fill="black"/>
<path d="M52.5135 21.4444C56.5277 21.4444 59.5895 22.414 61.6986 24.3531C63.8419 26.2581 64.9135 29.1498 64.9135 33.028V49H58.8921V45.6831C58.1096 46.8738 56.987 47.7923 55.5242 48.4387C54.0954 49.051 52.3604 49.3572 50.3192 49.3572C48.2781 49.3572 46.4921 49.017 44.9612 48.3366C43.4303 47.6222 42.2397 46.6527 41.3892 45.428C40.5727 44.1693 40.1645 42.7575 40.1645 41.1926C40.1645 38.7432 41.066 36.7871 42.869 35.3243C44.706 33.8274 47.5807 33.079 51.4929 33.079H58.5349V32.6708C58.5349 30.7657 57.9565 29.3029 56.7999 28.2823C55.6772 27.2617 53.9933 26.7514 51.748 26.7514C50.2172 26.7514 48.7033 26.9896 47.2065 27.4658C45.7436 27.9421 44.5019 28.6055 43.4814 29.4559L40.9809 24.8123C42.4098 23.7237 44.1277 22.8902 46.1349 22.3119C48.142 21.7336 50.2682 21.4444 52.5135 21.4444ZM51.646 44.7136C53.2449 44.7136 54.6567 44.3564 55.8814 43.642C57.1401 42.8935 58.0246 41.8389 58.5349 40.4782V37.3144H51.9521C48.2781 37.3144 46.441 38.5221 46.441 40.9374C46.441 42.0941 46.9003 43.0126 47.8188 43.693C48.7373 44.3734 50.013 44.7136 51.646 44.7136Z" fill="black"/>
<path d="M112.966 21.7506V49H72.8066V21.7506H79.1852V43.5909H89.7482V21.7506H96.1268V43.5909H106.588V21.7506H112.966Z" fill="black"/>
<path d="M155.394 34.814C158.762 35.8345 160.446 38.0118 160.446 41.3457C160.446 43.795 159.527 45.6831 157.69 47.0099C155.853 48.3366 153.132 49 149.526 49H135.646V21.7506H148.964C152.298 21.7506 154.901 22.3629 156.772 23.5876C158.643 24.8123 159.578 26.5473 159.578 28.7926C159.578 30.1874 159.204 31.395 158.456 32.4156C157.741 33.4362 156.721 34.2356 155.394 34.814ZM141.718 33.13H148.403C151.703 33.13 153.353 31.9904 153.353 29.7111C153.353 27.4998 151.703 26.3942 148.403 26.3942H141.718V33.13ZM149.015 44.3564C152.519 44.3564 154.271 43.2167 154.271 40.9374C154.271 39.7468 153.863 38.8623 153.047 38.2839C152.23 37.6716 150.954 37.3654 149.219 37.3654H141.718V44.3564H149.015Z" fill="black"/>
<path d="M192.754 35.5284C192.754 35.9706 192.72 36.6 192.652 37.4164H171.271C171.645 39.4236 172.615 41.0225 174.18 42.2132C175.779 43.3698 177.752 43.9481 180.099 43.9481C183.093 43.9481 185.559 42.9616 187.498 40.9885L190.917 44.9177C189.692 46.3805 188.145 47.4861 186.274 48.2346C184.402 48.983 182.293 49.3572 179.946 49.3572C176.952 49.3572 174.316 48.7618 172.036 47.5712C169.757 46.3805 167.988 44.7306 166.73 42.6214C165.505 40.4782 164.892 38.0628 164.892 35.3753C164.892 32.7218 165.488 30.3404 166.678 28.2313C167.903 26.088 169.587 24.4211 171.73 23.2304C173.874 22.0398 176.289 21.4444 178.976 21.4444C181.63 21.4444 183.994 22.0398 186.069 23.2304C188.179 24.3871 189.812 26.037 190.968 28.1802C192.159 30.2894 192.754 32.7388 192.754 35.5284ZM178.976 26.5473C176.935 26.5473 175.2 27.1597 173.771 28.3843C172.377 29.575 171.526 31.1739 171.22 33.181H186.682C186.41 31.2079 185.576 29.609 184.181 28.3843C182.787 27.1597 181.052 26.5473 178.976 26.5473Z" fill="black"/>
<path d="M214.478 23.0773C217.064 23.0773 219.343 23.6387 221.316 24.7613C223.289 25.8499 224.82 27.3808 225.909 29.3539C227.031 31.327 227.593 33.5893 227.593 36.1407C227.593 38.7602 226.98 41.0905 225.755 43.1317C224.531 45.1388 222.813 46.7037 220.602 47.8263C218.39 48.949 215.873 49.5103 213.049 49.5103C208.321 49.5103 204.664 47.9454 202.078 44.8156C199.493 41.6858 198.2 37.1783 198.2 31.293C198.2 25.8159 199.374 21.4784 201.721 18.2806C204.068 15.0828 207.657 12.9736 212.488 11.9531L225.143 9.24854L226.062 14.9638L214.58 17.3111C211.28 17.9915 208.814 19.1481 207.181 20.781C205.548 22.414 204.596 24.7103 204.323 27.6699C205.548 26.2071 207.028 25.0845 208.763 24.302C210.498 23.4856 212.403 23.0773 214.478 23.0773ZM213.202 44.3564C215.55 44.3564 217.438 43.6079 218.867 42.1111C220.329 40.5802 221.061 38.6411 221.061 36.2938C221.061 33.9465 220.329 32.0584 218.867 30.6296C217.438 29.2008 215.55 28.4864 213.202 28.4864C210.821 28.4864 208.899 29.2008 207.436 30.6296C205.973 32.0584 205.242 33.9465 205.242 36.2938C205.242 38.6751 205.973 40.6142 207.436 42.1111C208.933 43.6079 210.855 44.3564 213.202 44.3564Z" fill="black"/>
<path d="M260.269 49.3572C257.446 49.3572 254.911 48.7618 252.666 47.5712C250.421 46.3805 248.669 44.7306 247.41 42.6214C246.151 40.4782 245.522 38.0628 245.522 35.3753C245.522 32.6878 246.151 30.2894 247.41 28.1802C248.669 26.071 250.404 24.4211 252.615 23.2304C254.86 22.0398 257.412 21.4444 260.269 21.4444C262.957 21.4444 265.304 21.9887 267.311 23.0773C269.352 24.166 270.883 25.7308 271.904 27.772L267.005 30.6296C266.223 29.3709 265.236 28.4354 264.045 27.823C262.889 27.1767 261.613 26.8535 260.218 26.8535C257.837 26.8535 255.864 27.6359 254.299 29.2008C252.734 30.7317 251.952 32.7898 251.952 35.3753C251.952 37.9607 252.717 40.0359 254.248 41.6008C255.813 43.1317 257.803 43.8971 260.218 43.8971C261.613 43.8971 262.889 43.5909 264.045 42.9786C265.236 42.3322 266.223 41.3797 267.005 40.121L271.904 42.9786C270.849 45.0197 269.301 46.6016 267.26 47.7243C265.253 48.8129 262.923 49.3572 260.269 49.3572Z" fill="black"/>
<path d="M287.675 21.4444C291.689 21.4444 294.751 22.414 296.86 24.3531C299.003 26.2581 300.075 29.1498 300.075 33.028V49H294.053V45.6831C293.271 46.8738 292.148 47.7923 290.685 48.4387C289.256 49.051 287.521 49.3572 285.48 49.3572C283.439 49.3572 281.653 49.017 280.122 48.3366C278.591 47.6222 277.401 46.6527 276.55 45.428C275.734 44.1693 275.326 42.7575 275.326 41.1926C275.326 38.7432 276.227 36.7871 278.03 35.3243C279.867 33.8274 282.742 33.079 286.654 33.079H293.696V32.6708C293.696 30.7657 293.118 29.3029 291.961 28.2823C290.838 27.2617 289.154 26.7514 286.909 26.7514C285.378 26.7514 283.864 26.9896 282.368 27.4658C280.905 27.9421 279.663 28.6055 278.642 29.4559L276.142 24.8123C277.571 23.7237 279.289 22.8902 281.296 22.3119C283.303 21.7336 285.429 21.4444 287.675 21.4444ZM286.807 44.7136C288.406 44.7136 289.818 44.3564 291.042 43.642C292.301 42.8935 293.186 41.8389 293.696 40.4782V37.3144H287.113C283.439 37.3144 281.602 38.5221 281.602 40.9374C281.602 42.0941 282.061 43.0126 282.98 43.693C283.898 44.3734 285.174 44.7136 286.807 44.7136Z" fill="black"/>
<path d="M307.968 21.7506H314.346V39.7127L329.4 21.7506H335.217V49H328.838V31.0378L313.836 49H307.968V21.7506ZM321.184 18.5358C318.429 18.5358 316.319 17.9064 314.857 16.6477C313.428 15.355 312.696 13.4839 312.662 11.0345H316.898C316.932 12.2592 317.306 13.2288 318.02 13.9432C318.769 14.6576 319.806 15.0148 321.133 15.0148C322.426 15.0148 323.446 14.6576 324.195 13.9432C324.977 13.2288 325.386 12.2592 325.42 11.0345H329.757C329.723 13.4839 328.975 15.355 327.512 16.6477C326.049 17.9064 323.94 18.5358 321.184 18.5358Z" fill="black"/>
<path d="M365.383 27.1596H355.84V49H349.462V27.1596H339.868V21.7506H365.383V27.1596Z" fill="black"/>
<rect y="143.482" width="117.366" height="117.366" rx="25.5144" fill="#F1F1F1"/>
<rect x="168.396" y="143.481" width="637.86" height="117.366" rx="25.5144" fill="#F1F1F1"/>
<rect x="857.284" y="143.481" width="637.86" height="622.551" rx="25.5144" fill="#C6D4F9"/>
<rect y="311.877" width="117.366" height="117.366" rx="25.5144" fill="#F1F1F1"/>
<rect x="168.396" y="311.876" width="637.86" height="117.366" rx="25.5144" fill="#F1F1F1"/>
<rect y="480.272" width="117.366" height="117.366" rx="25.5144" fill="#F1F1F1"/>
<rect x="168.396" y="480.272" width="637.86" height="117.366" rx="25.5144" fill="#F1F1F1"/>
<rect y="648.667" width="117.366" height="117.366" rx="25.5144" fill="#F1F1F1"/>
<rect x="168.396" y="648.667" width="637.86" height="117.366" rx="25.5144" fill="#F1F1F1"/>
<path d="M3 0H1492V768H3V0Z" fill="white" fill-opacity="0.6"/>
<g filter="url(#filter0_d)">
<rect x="457" y="113" width="579.177" height="541.15" rx="8.77541" fill="white"/>
</g>
<path d="M612.454 253.267H602.216L600.198 258.005H596.278L605.492 237.529H609.236L618.48 258.005H614.502L612.454 253.267ZM611.196 250.283L607.335 241.332L603.503 250.283H611.196Z" fill="black"/>
<path d="M621.503 242.385H625.159V248.733H633.028V242.385H636.684V258.005H633.028V251.833H625.159V258.005H621.503V242.385Z" fill="black"/>
<path d="M641.877 242.385H645.533V248.733H653.402V242.385H657.058V258.005H653.402V251.833H645.533V258.005H641.877V242.385Z" fill="black"/>
<path d="M668.072 242.21C670.373 242.21 672.128 242.765 673.338 243.877C674.566 244.969 675.18 246.626 675.18 248.85V258.005H671.729V256.104C671.28 256.786 670.637 257.313 669.798 257.683C668.979 258.035 667.985 258.21 666.814 258.21C665.644 258.21 664.621 258.015 663.743 257.625C662.866 257.215 662.183 256.66 661.695 255.958C661.227 255.236 660.993 254.427 660.993 253.53C660.993 252.126 661.51 251.004 662.544 250.166C663.597 249.308 665.245 248.879 667.487 248.879H671.524V248.645C671.524 247.553 671.192 246.714 670.529 246.129C669.886 245.544 668.921 245.252 667.634 245.252C666.756 245.252 665.888 245.388 665.03 245.661C664.192 245.934 663.48 246.314 662.895 246.802L661.461 244.14C662.281 243.516 663.265 243.038 664.416 242.707C665.566 242.375 666.785 242.21 668.072 242.21ZM667.575 255.548C668.492 255.548 669.301 255.343 670.003 254.934C670.724 254.505 671.231 253.9 671.524 253.12V251.307H667.751C665.644 251.307 664.591 251.999 664.591 253.384C664.591 254.047 664.855 254.573 665.381 254.963C665.908 255.353 666.639 255.548 667.575 255.548Z" fill="black"/>
<path d="M696.804 249.932C697.838 250.205 698.637 250.644 699.203 251.248C699.768 251.853 700.051 252.604 700.051 253.501C700.051 254.417 699.739 255.236 699.115 255.958C698.491 256.66 697.623 257.215 696.511 257.625C695.419 258.015 694.191 258.21 692.826 258.21C691.675 258.21 690.544 258.064 689.433 257.771C688.341 257.459 687.366 257.02 686.507 256.455L687.356 254.32C688.097 254.788 688.945 255.158 689.901 255.431C690.856 255.685 691.821 255.811 692.797 255.811C694.123 255.811 695.176 255.587 695.956 255.139C696.755 254.671 697.155 254.047 697.155 253.267C697.155 252.545 696.833 251.989 696.19 251.599C695.566 251.209 694.678 251.014 693.528 251.014H690.69V248.996H693.323C694.376 248.996 695.205 248.811 695.809 248.44C696.414 248.07 696.716 247.563 696.716 246.919C696.716 246.217 696.355 245.671 695.634 245.281C694.932 244.891 693.976 244.696 692.767 244.696C691.227 244.696 689.598 245.096 687.882 245.895L687.122 243.731C689.013 242.775 690.993 242.297 693.06 242.297C694.308 242.297 695.429 242.473 696.424 242.824C697.418 243.175 698.198 243.672 698.764 244.316C699.329 244.959 699.612 245.69 699.612 246.509C699.612 247.27 699.359 247.953 698.852 248.557C698.345 249.162 697.662 249.62 696.804 249.932Z" fill="black"/>
<path d="M710.141 242.356C712.286 242.356 713.924 242.882 715.055 243.935C716.206 244.988 716.781 246.558 716.781 248.645V258.005H714.119V255.958C713.651 256.679 712.978 257.235 712.101 257.625C711.243 257.996 710.219 258.181 709.029 258.181C707.294 258.181 705.9 257.761 704.846 256.923C703.813 256.084 703.296 254.983 703.296 253.618C703.296 252.252 703.793 251.16 704.788 250.341C705.783 249.503 707.362 249.084 709.527 249.084H713.973V248.528C713.973 247.319 713.622 246.392 712.92 245.749C712.218 245.105 711.184 244.784 709.819 244.784C708.903 244.784 708.006 244.94 707.128 245.252C706.251 245.544 705.51 245.944 704.905 246.451L703.735 244.345C704.534 243.701 705.49 243.214 706.602 242.882C707.713 242.531 708.893 242.356 710.141 242.356ZM709.497 256.016C710.57 256.016 711.496 255.782 712.276 255.314C713.056 254.827 713.622 254.144 713.973 253.267V251.102H709.644C707.265 251.102 706.075 251.901 706.075 253.501C706.075 254.281 706.377 254.895 706.982 255.343C707.586 255.792 708.425 256.016 709.497 256.016Z" fill="black"/>
<path d="M736.493 242.502V258.005H733.684V244.959H724.938V258.005H722.13V242.502H736.493Z" fill="black"/>
<path d="M750.438 242.356C751.94 242.356 753.286 242.687 754.475 243.35C755.665 244.013 756.591 244.94 757.254 246.129C757.937 247.319 758.278 248.694 758.278 250.254C758.278 251.814 757.937 253.198 757.254 254.407C756.591 255.597 755.665 256.523 754.475 257.186C753.286 257.849 751.94 258.181 750.438 258.181C749.327 258.181 748.303 257.966 747.367 257.537C746.45 257.108 745.67 256.484 745.027 255.665V263.68H742.219V242.502H744.91V244.959C745.534 244.101 746.324 243.458 747.279 243.029C748.235 242.58 749.288 242.356 750.438 242.356ZM750.204 255.724C751.199 255.724 752.086 255.499 752.866 255.051C753.666 254.583 754.29 253.939 754.738 253.12C755.206 252.282 755.44 251.326 755.44 250.254C755.44 249.181 755.206 248.235 754.738 247.416C754.29 246.578 753.666 245.934 752.866 245.486C752.086 245.037 751.199 244.813 750.204 244.813C749.229 244.813 748.342 245.047 747.543 245.515C746.762 245.963 746.138 246.597 745.67 247.416C745.222 248.235 744.998 249.181 744.998 250.254C744.998 251.326 745.222 252.282 745.67 253.12C746.119 253.939 746.743 254.583 747.543 255.051C748.342 255.499 749.229 255.724 750.204 255.724Z" fill="black"/>
<path d="M768.036 242.356C770.181 242.356 771.819 242.882 772.95 243.935C774.101 244.988 774.676 246.558 774.676 248.645V258.005H772.014V255.958C771.546 256.679 770.873 257.235 769.996 257.625C769.138 257.996 768.114 258.181 766.924 258.181C765.189 258.181 763.794 257.761 762.741 256.923C761.708 256.084 761.191 254.983 761.191 253.618C761.191 252.252 761.688 251.16 762.683 250.341C763.677 249.503 765.257 249.084 767.422 249.084H771.868V248.528C771.868 247.319 771.517 246.392 770.815 245.749C770.113 245.105 769.079 244.784 767.714 244.784C766.798 244.784 765.9 244.94 765.023 245.252C764.145 245.544 763.404 245.944 762.8 246.451L761.63 244.345C762.429 243.701 763.385 243.214 764.496 242.882C765.608 242.531 766.788 242.356 768.036 242.356ZM767.392 256.016C768.465 256.016 769.391 255.782 770.171 255.314C770.951 254.827 771.517 254.144 771.868 253.267V251.102H767.539C765.159 251.102 763.97 251.901 763.97 253.501C763.97 254.281 764.272 254.895 764.877 255.343C765.481 255.792 766.32 256.016 767.392 256.016Z" fill="black"/>
<path d="M802.11 242.502V258.005H780.025V242.502H782.833V255.548H789.678V242.502H792.486V255.548H799.302V242.502H802.11Z" fill="black"/>
<path d="M807.855 242.502H810.663V253.793L820.17 242.502H822.715V258.005H819.907V246.714L810.429 258.005H807.855V242.502Z" fill="black"/>
<path d="M839.017 249.961C841.026 250.468 842.03 251.726 842.03 253.735C842.03 255.1 841.514 256.153 840.48 256.894C839.466 257.635 837.945 258.005 835.917 258.005H828.458V242.502H835.654C837.487 242.502 838.92 242.853 839.954 243.555C840.987 244.238 841.504 245.213 841.504 246.48C841.504 247.299 841.28 248.011 840.831 248.616C840.402 249.201 839.798 249.649 839.017 249.961ZM831.207 249.171H835.42C836.492 249.171 837.301 248.976 837.847 248.586C838.413 248.196 838.696 247.631 838.696 246.89C838.696 245.408 837.604 244.667 835.42 244.667H831.207V249.171ZM835.712 255.841C836.882 255.841 837.76 255.655 838.345 255.285C838.93 254.914 839.222 254.339 839.222 253.559C839.222 252.76 838.949 252.165 838.403 251.775C837.877 251.385 837.038 251.19 835.888 251.19H831.207V255.841H835.712Z" fill="black"/>
<path d="M852.247 242.356C854.392 242.356 856.03 242.882 857.161 243.935C858.311 244.988 858.887 246.558 858.887 248.645V258.005H856.225V255.958C855.757 256.679 855.084 257.235 854.207 257.625C853.348 257.996 852.325 258.181 851.135 258.181C849.4 258.181 848.005 257.761 846.952 256.923C845.919 256.084 845.402 254.983 845.402 253.618C845.402 252.252 845.899 251.16 846.894 250.341C847.888 249.503 849.468 249.084 851.632 249.084H856.079V248.528C856.079 247.319 855.728 246.392 855.026 245.749C854.324 245.105 853.29 244.784 851.925 244.784C851.008 244.784 850.111 244.94 849.234 245.252C848.356 245.544 847.615 245.944 847.011 246.451L845.841 244.345C846.64 243.701 847.596 243.214 848.707 242.882C849.819 242.531 850.999 242.356 852.247 242.356ZM851.603 256.016C852.676 256.016 853.602 255.782 854.382 255.314C855.162 254.827 855.728 254.144 856.079 253.267V251.102H851.749C849.37 251.102 848.181 251.901 848.181 253.501C848.181 254.281 848.483 254.895 849.088 255.343C849.692 255.792 850.531 256.016 851.603 256.016Z" fill="black"/>
<path d="M878.247 250.341C878.247 250.556 878.228 250.839 878.189 251.19H865.611C865.786 252.555 866.381 253.657 867.395 254.495C868.429 255.314 869.706 255.724 871.227 255.724C873.079 255.724 874.571 255.1 875.702 253.852L877.253 255.665C876.551 256.484 875.673 257.108 874.62 257.537C873.587 257.966 872.426 258.181 871.139 258.181C869.501 258.181 868.048 257.849 866.781 257.186C865.513 256.504 864.528 255.558 863.826 254.349C863.144 253.14 862.802 251.775 862.802 250.254C862.802 248.752 863.134 247.397 863.797 246.188C864.48 244.979 865.406 244.043 866.576 243.38C867.765 242.697 869.101 242.356 870.583 242.356C872.065 242.356 873.382 242.697 874.532 243.38C875.702 244.043 876.609 244.979 877.253 246.188C877.916 247.397 878.247 248.781 878.247 250.341ZM870.583 244.725C869.238 244.725 868.107 245.135 867.19 245.954C866.293 246.773 865.767 247.845 865.611 249.171H875.556C875.4 247.865 874.864 246.802 873.947 245.983C873.05 245.144 871.929 244.725 870.583 244.725Z" fill="black"/>
<path d="M893.793 244.959H888.119V258.005H885.311V244.959H879.636V242.502H893.793V244.959Z" fill="black"/>
<path d="M534.499 278.356C536 278.356 537.346 278.687 538.535 279.35C539.725 280.013 540.651 280.94 541.314 282.129C541.997 283.319 542.338 284.694 542.338 286.254C542.338 287.814 541.997 289.198 541.314 290.407C540.651 291.597 539.725 292.523 538.535 293.186C537.346 293.849 536 294.181 534.499 294.181C533.387 294.181 532.363 293.966 531.427 293.537C530.511 293.108 529.731 292.484 529.087 291.665V299.68H526.279V278.502H528.97V280.959C529.594 280.101 530.384 279.458 531.34 279.029C532.295 278.58 533.348 278.356 534.499 278.356ZM534.265 291.724C535.259 291.724 536.147 291.499 536.927 291.051C537.726 290.583 538.35 289.939 538.799 289.12C539.267 288.282 539.501 287.326 539.501 286.254C539.501 285.181 539.267 284.235 538.799 283.416C538.35 282.578 537.726 281.934 536.927 281.486C536.147 281.037 535.259 280.813 534.265 280.813C533.29 280.813 532.402 281.047 531.603 281.515C530.823 281.963 530.199 282.597 529.731 283.416C529.282 284.235 529.058 285.181 529.058 286.254C529.058 287.326 529.282 288.282 529.731 289.12C530.179 289.939 530.803 290.583 531.603 291.051C532.402 291.499 533.29 291.724 534.265 291.724Z" fill="black"/>
<path d="M552.096 278.356C554.241 278.356 555.879 278.882 557.01 279.935C558.161 280.988 558.736 282.558 558.736 284.645V294.005H556.074V291.958C555.606 292.679 554.934 293.235 554.056 293.625C553.198 293.996 552.174 294.181 550.985 294.181C549.249 294.181 547.855 293.761 546.802 292.923C545.768 292.084 545.251 290.983 545.251 289.618C545.251 288.252 545.749 287.16 546.743 286.341C547.738 285.503 549.317 285.084 551.482 285.084H555.928V284.528C555.928 283.319 555.577 282.392 554.875 281.749C554.173 281.105 553.14 280.784 551.774 280.784C550.858 280.784 549.961 280.94 549.083 281.252C548.206 281.544 547.465 281.944 546.86 282.451L545.69 280.345C546.49 279.701 547.445 279.214 548.557 278.882C549.668 278.531 550.848 278.356 552.096 278.356ZM551.453 292.016C552.525 292.016 553.452 291.782 554.232 291.314C555.012 290.827 555.577 290.144 555.928 289.267V287.102H551.599C549.22 287.102 548.03 287.901 548.03 289.501C548.03 290.281 548.333 290.895 548.937 291.343C549.542 291.792 550.38 292.016 551.453 292.016Z" fill="black"/>
<path d="M572.223 285.932C573.257 286.205 574.057 286.644 574.622 287.248C575.188 287.853 575.47 288.604 575.47 289.501C575.47 290.417 575.158 291.236 574.534 291.958C573.91 292.66 573.043 293.215 571.931 293.625C570.839 294.015 569.61 294.21 568.245 294.21C567.095 294.21 565.964 294.064 564.852 293.771C563.76 293.459 562.785 293.02 561.927 292.455L562.775 290.32C563.516 290.788 564.365 291.158 565.32 291.431C566.276 291.685 567.241 291.811 568.216 291.811C569.542 291.811 570.595 291.587 571.375 291.139C572.175 290.671 572.574 290.047 572.574 289.267C572.574 288.545 572.253 287.989 571.609 287.599C570.985 287.209 570.098 287.014 568.947 287.014H566.11V284.996H568.743C569.796 284.996 570.624 284.811 571.229 284.44C571.833 284.07 572.136 283.563 572.136 282.919C572.136 282.217 571.775 281.671 571.053 281.281C570.351 280.891 569.396 280.696 568.187 280.696C566.646 280.696 565.018 281.096 563.302 281.895L562.541 279.731C564.433 278.775 566.412 278.297 568.479 278.297C569.727 278.297 570.849 278.473 571.843 278.824C572.838 279.175 573.618 279.672 574.183 280.316C574.749 280.959 575.032 281.69 575.032 282.509C575.032 283.27 574.778 283.953 574.271 284.557C573.764 285.162 573.082 285.62 572.223 285.932Z" fill="black"/>
<path d="M588.252 278.356C589.753 278.356 591.099 278.687 592.288 279.35C593.478 280.013 594.404 280.94 595.067 282.129C595.75 283.319 596.091 284.694 596.091 286.254C596.091 287.814 595.75 289.198 595.067 290.407C594.404 291.597 593.478 292.523 592.288 293.186C591.099 293.849 589.753 294.181 588.252 294.181C587.14 294.181 586.116 293.966 585.18 293.537C584.264 293.108 583.484 292.484 582.84 291.665V299.68H580.032V278.502H582.723V280.959C583.347 280.101 584.137 279.458 585.092 279.029C586.048 278.58 587.101 278.356 588.252 278.356ZM588.018 291.724C589.012 291.724 589.899 291.499 590.679 291.051C591.479 290.583 592.103 289.939 592.552 289.12C593.02 288.282 593.254 287.326 593.254 286.254C593.254 285.181 593.02 284.235 592.552 283.416C592.103 282.578 591.479 281.934 590.679 281.486C589.899 281.037 589.012 280.813 588.018 280.813C587.043 280.813 586.155 281.047 585.356 281.515C584.576 281.963 583.952 282.597 583.484 283.416C583.035 284.235 582.811 285.181 582.811 286.254C582.811 287.326 583.035 288.282 583.484 289.12C583.932 289.939 584.556 290.583 585.356 291.051C586.155 291.499 587.043 291.724 588.018 291.724Z" fill="black"/>
<path d="M614.475 286.341C614.475 286.556 614.455 286.839 614.416 287.19H601.838C602.014 288.555 602.608 289.657 603.623 290.495C604.656 291.314 605.933 291.724 607.454 291.724C609.307 291.724 610.799 291.1 611.93 289.852L613.48 291.665C612.778 292.484 611.901 293.108 610.848 293.537C609.814 293.966 608.654 294.181 607.367 294.181C605.729 294.181 604.276 293.849 603.008 293.186C601.741 292.504 600.756 291.558 600.054 290.349C599.371 289.14 599.03 287.775 599.03 286.254C599.03 284.752 599.362 283.397 600.025 282.188C600.707 280.979 601.633 280.043 602.803 279.38C603.993 278.697 605.329 278.356 606.811 278.356C608.293 278.356 609.609 278.697 610.76 279.38C611.93 280.043 612.837 280.979 613.48 282.188C614.143 283.397 614.475 284.781 614.475 286.341ZM606.811 280.725C605.465 280.725 604.334 281.135 603.418 281.954C602.521 282.773 601.994 283.845 601.838 285.171H611.784C611.628 283.865 611.091 282.802 610.175 281.983C609.278 281.144 608.156 280.725 606.811 280.725Z" fill="black"/>
<path d="M641.208 278.502V294.005H619.124V278.502H621.932V291.548H628.777V278.502H631.585V291.548H638.4V278.502H641.208Z" fill="black"/>
<path d="M660.965 286.341C660.965 286.556 660.946 286.839 660.907 287.19H648.328C648.504 288.555 649.099 289.657 650.113 290.495C651.146 291.314 652.424 291.724 653.945 291.724C655.797 291.724 657.289 291.1 658.42 289.852L659.97 291.665C659.268 292.484 658.391 293.108 657.338 293.537C656.304 293.966 655.144 294.181 653.857 294.181C652.219 294.181 650.766 293.849 649.498 293.186C648.231 292.504 647.246 291.558 646.544 290.349C645.862 289.14 645.52 287.775 645.52 286.254C645.52 284.752 645.852 283.397 646.515 282.188C647.197 280.979 648.124 280.043 649.294 279.38C650.483 278.697 651.819 278.356 653.301 278.356C654.783 278.356 656.1 278.697 657.25 279.38C658.42 280.043 659.327 280.979 659.97 282.188C660.633 283.397 660.965 284.781 660.965 286.341ZM653.301 280.725C651.956 280.725 650.825 281.135 649.908 281.954C649.011 282.773 648.484 283.845 648.328 285.171H658.274C658.118 283.865 657.582 282.802 656.665 281.983C655.768 281.144 654.647 280.725 653.301 280.725Z" fill="black"/>
<path d="M665.614 278.502H668.422V285.084H677.256V278.502H680.064V294.005H677.256V287.511H668.422V294.005H665.614V278.502Z" fill="black"/>
<path d="M685.817 278.502H688.625V289.793L698.132 278.502H700.676V294.005H697.868V282.714L688.391 294.005H685.817V278.502Z" fill="black"/>
<path d="M720.431 286.341C720.431 286.556 720.411 286.839 720.372 287.19H707.794C707.97 288.555 708.565 289.657 709.579 290.495C710.612 291.314 711.89 291.724 713.411 291.724C715.263 291.724 716.755 291.1 717.886 289.852L719.436 291.665C718.734 292.484 717.857 293.108 716.804 293.537C715.77 293.966 714.61 294.181 713.323 294.181C711.685 294.181 710.232 293.849 708.964 293.186C707.697 292.504 706.712 291.558 706.01 290.349C705.328 289.14 704.986 287.775 704.986 286.254C704.986 284.752 705.318 283.397 705.981 282.188C706.663 280.979 707.59 280.043 708.76 279.38C709.949 278.697 711.285 278.356 712.767 278.356C714.249 278.356 715.565 278.697 716.716 279.38C717.886 280.043 718.793 280.979 719.436 282.188C720.099 283.397 720.431 284.781 720.431 286.341ZM712.767 280.725C711.422 280.725 710.29 281.135 709.374 281.954C708.477 282.773 707.95 283.845 707.794 285.171H717.74C717.584 283.865 717.048 282.802 716.131 281.983C715.234 281.144 714.113 280.725 712.767 280.725Z" fill="black"/>
<path d="M733.228 278.502H736.036V285.084H744.87V278.502H747.678V294.005H744.87V287.511H736.036V294.005H733.228V278.502Z" fill="black"/>
<path d="M758.959 278.356C761.104 278.356 762.743 278.882 763.874 279.935C765.024 280.988 765.599 282.558 765.599 284.645V294.005H762.938V291.958C762.47 292.679 761.797 293.235 760.919 293.625C760.061 293.996 759.037 294.181 757.848 294.181C756.112 294.181 754.718 293.761 753.665 292.923C752.631 292.084 752.115 290.983 752.115 289.618C752.115 288.252 752.612 287.16 753.606 286.341C754.601 285.503 756.18 285.084 758.345 285.084H762.791V284.528C762.791 283.319 762.44 282.392 761.738 281.749C761.036 281.105 760.003 280.784 758.638 280.784C757.721 280.784 756.824 280.94 755.946 281.252C755.069 281.544 754.328 281.944 753.723 282.451L752.553 280.345C753.353 279.701 754.308 279.214 755.42 278.882C756.531 278.531 757.711 278.356 758.959 278.356ZM758.316 292.016C759.388 292.016 760.315 291.782 761.095 291.314C761.875 290.827 762.44 290.144 762.791 289.267V287.102H758.462C756.083 287.102 754.893 287.901 754.893 289.501C754.893 290.281 755.196 290.895 755.8 291.343C756.405 291.792 757.243 292.016 758.316 292.016Z" fill="black"/>
<path d="M792.933 278.502L785.415 295.556C784.752 297.135 783.972 298.247 783.075 298.89C782.197 299.534 781.134 299.856 779.886 299.856C779.126 299.856 778.385 299.729 777.663 299.475C776.961 299.241 776.376 298.89 775.908 298.422L777.108 296.316C777.907 297.077 778.833 297.457 779.886 297.457C780.569 297.457 781.134 297.272 781.583 296.901C782.051 296.55 782.47 295.936 782.841 295.058L783.338 293.976L776.493 278.502H779.418L784.83 290.905L790.183 278.502H792.933Z" fill="black"/>
<path d="M810.463 278.502V294.005H807.654V280.959H798.908V294.005H796.1V278.502H810.463Z" fill="black"/>
<path d="M824.408 278.356C825.91 278.356 827.255 278.687 828.445 279.35C829.635 280.013 830.561 280.94 831.224 282.129C831.906 283.319 832.248 284.694 832.248 286.254C832.248 287.814 831.906 289.198 831.224 290.407C830.561 291.597 829.635 292.523 828.445 293.186C827.255 293.849 825.91 294.181 824.408 294.181C823.297 294.181 822.273 293.966 821.337 293.537C820.42 293.108 819.64 292.484 818.997 291.665V299.68H816.189V278.502H818.88V280.959C819.504 280.101 820.294 279.458 821.249 279.029C822.205 278.58 823.258 278.356 824.408 278.356ZM824.174 291.724C825.169 291.724 826.056 291.499 826.836 291.051C827.636 290.583 828.26 289.939 828.708 289.12C829.176 288.282 829.41 287.326 829.41 286.254C829.41 285.181 829.176 284.235 828.708 283.416C828.26 282.578 827.636 281.934 826.836 281.486C826.056 281.037 825.169 280.813 824.174 280.813C823.199 280.813 822.312 281.047 821.512 281.515C820.732 281.963 820.108 282.597 819.64 283.416C819.192 284.235 818.968 285.181 818.968 286.254C818.968 287.326 819.192 288.282 819.64 289.12C820.089 289.939 820.713 290.583 821.512 291.051C822.312 291.499 823.199 291.724 824.174 291.724Z" fill="black"/>
<path d="M842.006 278.356C844.151 278.356 845.789 278.882 846.92 279.935C848.071 280.988 848.646 282.558 848.646 284.645V294.005H845.984V291.958C845.516 292.679 844.843 293.235 843.966 293.625C843.108 293.996 842.084 294.181 840.894 294.181C839.159 294.181 837.764 293.761 836.711 292.923C835.678 292.084 835.161 290.983 835.161 289.618C835.161 288.252 835.658 287.16 836.653 286.341C837.647 285.503 839.227 285.084 841.392 285.084H845.838V284.528C845.838 283.319 845.487 282.392 844.785 281.749C844.083 281.105 843.049 280.784 841.684 280.784C840.768 280.784 839.87 280.94 838.993 281.252C838.115 281.544 837.374 281.944 836.77 282.451L835.6 280.345C836.399 279.701 837.355 279.214 838.466 278.882C839.578 278.531 840.758 278.356 842.006 278.356ZM841.362 292.016C842.435 292.016 843.361 291.782 844.141 291.314C844.921 290.827 845.487 290.144 845.838 289.267V287.102H841.509C839.129 287.102 837.94 287.901 837.94 289.501C837.94 290.281 838.242 290.895 838.847 291.343C839.451 291.792 840.29 292.016 841.362 292.016Z" fill="black"/>
<path d="M864.555 285.961C866.563 286.468 867.568 287.726 867.568 289.735C867.568 291.1 867.051 292.153 866.017 292.894C865.003 293.635 863.482 294.005 861.454 294.005H853.995V278.502H861.191C863.024 278.502 864.457 278.853 865.491 279.555C866.524 280.238 867.041 281.213 867.041 282.48C867.041 283.299 866.817 284.011 866.368 284.616C865.939 285.201 865.335 285.649 864.555 285.961ZM856.745 285.171H860.957C862.029 285.171 862.839 284.976 863.385 284.586C863.95 284.196 864.233 283.631 864.233 282.89C864.233 281.408 863.141 280.667 860.957 280.667H856.745V285.171ZM861.249 291.841C862.419 291.841 863.297 291.655 863.882 291.285C864.467 290.914 864.759 290.339 864.759 289.559C864.759 288.76 864.486 288.165 863.94 287.775C863.414 287.385 862.575 287.19 861.425 287.19H856.745V291.841H861.249Z" fill="black"/>
<path d="M885.565 278.502V294.005H882.757V280.959H876.087L875.912 284.411C875.814 286.497 875.629 288.243 875.356 289.647C875.083 291.031 874.634 292.143 874.01 292.981C873.386 293.82 872.519 294.239 871.407 294.239C870.9 294.239 870.325 294.152 869.681 293.976L869.857 291.607C870.11 291.665 870.344 291.694 870.559 291.694C871.339 291.694 871.924 291.353 872.314 290.671C872.704 289.988 872.957 289.179 873.074 288.243C873.191 287.307 873.299 285.971 873.396 284.235L873.659 278.502H885.565Z" fill="black"/>
<path d="M905.298 286.341C905.298 286.556 905.279 286.839 905.24 287.19H892.662C892.837 288.555 893.432 289.657 894.446 290.495C895.48 291.314 896.757 291.724 898.278 291.724C900.131 291.724 901.623 291.1 902.754 289.852L904.304 291.665C903.602 292.484 902.724 293.108 901.671 293.537C900.638 293.966 899.477 294.181 898.19 294.181C896.552 294.181 895.099 293.849 893.832 293.186C892.564 292.504 891.58 291.558 890.878 290.349C890.195 289.14 889.854 287.775 889.854 286.254C889.854 284.752 890.185 283.397 890.848 282.188C891.531 280.979 892.457 280.043 893.627 279.38C894.817 278.697 896.153 278.356 897.635 278.356C899.117 278.356 900.433 278.697 901.584 279.38C902.754 280.043 903.66 280.979 904.304 282.188C904.967 283.397 905.298 284.781 905.298 286.341ZM897.635 280.725C896.289 280.725 895.158 281.135 894.241 281.954C893.344 282.773 892.818 283.845 892.662 285.171H902.607C902.451 283.865 901.915 282.802 900.999 281.983C900.101 281.144 898.98 280.725 897.635 280.725Z" fill="black"/>
<path d="M909.947 278.502H912.755V285.084H921.589V278.502H924.398V294.005H921.589V287.511H912.755V294.005H909.947V278.502Z" fill="black"/>
<path d="M930.15 278.502H932.958V289.793L942.465 278.502H945.01V294.005H942.202V282.714L932.724 294.005H930.15V278.502Z" fill="black"/>
<path d="M964.764 286.341C964.764 286.556 964.745 286.839 964.706 287.19H952.128C952.303 288.555 952.898 289.657 953.912 290.495C954.946 291.314 956.223 291.724 957.744 291.724C959.597 291.724 961.088 291.1 962.22 289.852L963.77 291.665C963.068 292.484 962.19 293.108 961.137 293.537C960.104 293.966 958.943 294.181 957.656 294.181C956.018 294.181 954.565 293.849 953.298 293.186C952.03 292.504 951.046 291.558 950.343 290.349C949.661 289.14 949.32 287.775 949.32 286.254C949.32 284.752 949.651 283.397 950.314 282.188C950.997 280.979 951.923 280.043 953.093 279.38C954.283 278.697 955.618 278.356 957.101 278.356C958.583 278.356 959.899 278.697 961.049 279.38C962.22 280.043 963.126 280.979 963.77 282.188C964.433 283.397 964.764 284.781 964.764 286.341ZM957.101 280.725C955.755 280.725 954.624 281.135 953.707 281.954C952.81 282.773 952.284 283.845 952.128 285.171H962.073C961.917 283.865 961.381 282.802 960.464 281.983C959.567 281.144 958.446 280.725 957.101 280.725Z" fill="black"/>
<path d="M649.839 314.502V330.005H647.031V316.959H638.285V330.005H635.477V314.502H649.839Z" fill="black"/>
<path d="M663.785 314.356C665.287 314.356 666.632 314.687 667.822 315.35C669.011 316.013 669.938 316.94 670.601 318.129C671.283 319.319 671.625 320.694 671.625 322.254C671.625 323.814 671.283 325.198 670.601 326.407C669.938 327.597 669.011 328.523 667.822 329.186C666.632 329.849 665.287 330.181 663.785 330.181C662.674 330.181 661.65 329.966 660.714 329.537C659.797 329.108 659.017 328.484 658.374 327.665V335.68H655.566V314.502H658.257V316.959C658.881 316.101 659.671 315.458 660.626 315.029C661.582 314.58 662.635 314.356 663.785 314.356ZM663.551 327.724C664.546 327.724 665.433 327.499 666.213 327.051C667.013 326.583 667.637 325.939 668.085 325.12C668.553 324.282 668.787 323.326 668.787 322.254C668.787 321.181 668.553 320.235 668.085 319.416C667.637 318.578 667.013 317.934 666.213 317.486C665.433 317.037 664.546 316.813 663.551 316.813C662.576 316.813 661.689 317.047 660.889 317.515C660.109 317.963 659.485 318.597 659.017 319.416C658.569 320.235 658.344 321.181 658.344 322.254C658.344 323.326 658.569 324.282 659.017 325.12C659.466 325.939 660.09 326.583 660.889 327.051C661.689 327.499 662.576 327.724 663.551 327.724Z" fill="black"/>
<path d="M675.997 314.502H678.805V325.793L688.312 314.502H690.857V330.005H688.049V318.714L678.571 330.005H675.997V314.502Z" fill="black"/>
<path d="M709.909 314.502V330.005H707.101V316.959H700.432L700.256 320.411C700.159 322.497 699.973 324.243 699.7 325.647C699.427 327.031 698.979 328.143 698.355 328.981C697.731 329.82 696.863 330.239 695.751 330.239C695.244 330.239 694.669 330.152 694.026 329.976L694.201 327.607C694.455 327.665 694.689 327.694 694.903 327.694C695.683 327.694 696.268 327.353 696.658 326.671C697.048 325.988 697.302 325.179 697.419 324.243C697.536 323.307 697.643 321.971 697.741 320.235L698.004 314.502H709.909Z" fill="black"/>
<path d="M722.272 330.181C720.731 330.181 719.346 329.839 718.118 329.157C716.889 328.474 715.924 327.538 715.222 326.349C714.539 325.14 714.198 323.775 714.198 322.254C714.198 320.733 714.539 319.377 715.222 318.188C715.924 316.979 716.889 316.043 718.118 315.38C719.346 314.697 720.731 314.356 722.272 314.356C723.812 314.356 725.187 314.697 726.396 315.38C727.625 316.043 728.58 316.979 729.263 318.188C729.965 319.377 730.316 320.733 730.316 322.254C730.316 323.775 729.965 325.14 729.263 326.349C728.58 327.538 727.625 328.474 726.396 329.157C725.187 329.839 723.812 330.181 722.272 330.181ZM722.272 327.724C723.266 327.724 724.153 327.499 724.933 327.051C725.733 326.583 726.357 325.939 726.805 325.12C727.254 324.282 727.478 323.326 727.478 322.254C727.478 321.181 727.254 320.235 726.805 319.416C726.357 318.578 725.733 317.934 724.933 317.486C724.153 317.037 723.266 316.813 722.272 316.813C721.277 316.813 720.38 317.037 719.58 317.486C718.8 317.934 718.176 318.578 717.708 319.416C717.26 320.235 717.036 321.181 717.036 322.254C717.036 323.326 717.26 324.282 717.708 325.12C718.176 325.939 718.8 326.583 719.58 327.051C720.38 327.499 721.277 327.724 722.272 327.724Z" fill="black"/>
<path d="M748.248 323.453H745.235V330.005H742.427V323.453H739.414L735.143 330.005H731.809L737.133 321.99L732.218 314.502H735.202L739.385 321.054H742.427V314.502H745.235V321.054H748.277L752.46 314.502H755.473L750.559 322.02L755.883 330.005H752.548L748.248 323.453Z" fill="black"/>
<path d="M772.762 322.341C772.762 322.556 772.743 322.839 772.704 323.19H760.126C760.301 324.555 760.896 325.657 761.91 326.495C762.944 327.314 764.221 327.724 765.742 327.724C767.595 327.724 769.086 327.1 770.217 325.852L771.768 327.665C771.066 328.484 770.188 329.108 769.135 329.537C768.102 329.966 766.941 330.181 765.654 330.181C764.016 330.181 762.563 329.849 761.296 329.186C760.028 328.504 759.043 327.558 758.341 326.349C757.659 325.14 757.318 323.775 757.318 322.254C757.318 320.752 757.649 319.397 758.312 318.188C758.995 316.979 759.921 316.043 761.091 315.38C762.281 314.697 763.616 314.356 765.098 314.356C766.581 314.356 767.897 314.697 769.047 315.38C770.217 316.043 771.124 316.979 771.768 318.188C772.431 319.397 772.762 320.781 772.762 322.341ZM765.098 316.725C763.753 316.725 762.622 317.135 761.705 317.954C760.808 318.773 760.282 319.845 760.126 321.171H770.071C769.915 319.865 769.379 318.802 768.462 317.983C767.565 317.144 766.444 316.725 765.098 316.725Z" fill="black"/>
<path d="M777.411 314.502H780.219V321.084H789.053V314.502H791.861V330.005H789.053V323.511H780.219V330.005H777.411V314.502Z" fill="black"/>
<path d="M797.614 314.502H800.422V325.793L809.929 314.502H812.474V330.005H809.666V318.714L800.188 330.005H797.614V314.502Z" fill="black"/>
<path d="M832.228 322.341C832.228 322.556 832.209 322.839 832.17 323.19H819.592C819.767 324.555 820.362 325.657 821.376 326.495C822.41 327.314 823.687 327.724 825.208 327.724C827.061 327.724 828.552 327.1 829.683 325.852L831.234 327.665C830.532 328.484 829.654 329.108 828.601 329.537C827.568 329.966 826.407 330.181 825.12 330.181C823.482 330.181 822.029 329.849 820.762 329.186C819.494 328.504 818.509 327.558 817.807 326.349C817.125 325.14 816.784 323.775 816.784 322.254C816.784 320.752 817.115 319.397 817.778 318.188C818.461 316.979 819.387 316.043 820.557 315.38C821.747 314.697 823.082 314.356 824.564 314.356C826.047 314.356 827.363 314.697 828.513 315.38C829.683 316.043 830.59 316.979 831.234 318.188C831.897 319.397 832.228 320.781 832.228 322.341ZM824.564 316.725C823.219 316.725 822.088 317.135 821.171 317.954C820.274 318.773 819.748 319.845 819.592 321.171H829.537C829.381 319.865 828.845 318.802 827.928 317.983C827.031 317.144 825.91 316.725 824.564 316.725Z" fill="black"/>
<path d="M854.75 314.502V330.005H852.205V318.685L846.413 328.25H845.185L839.451 318.656V330.005H836.877V314.502H839.773L845.857 324.974L852.117 314.502H854.75Z" fill="black"/>
<rect x="761.158" y="599.585" width="19.9032" height="15.6774" rx="3.84767" stroke="white" stroke-width="1.69534"/>
<rect x="752.681" y="594.5" width="19.9032" height="15.6774" rx="3.84767" stroke="white" stroke-width="1.69534"/>
<path d="M792.576 607.871C792.95 608.342 793.357 608.716 793.796 608.993C794.251 609.269 794.82 609.407 795.503 609.407C795.796 609.407 796.089 609.375 796.382 609.31C796.69 609.245 796.967 609.139 797.211 608.993C797.455 608.846 797.65 608.668 797.796 608.456C797.943 608.228 798.016 607.96 798.016 607.651C798.016 607.342 797.943 607.09 797.796 606.895C797.666 606.7 797.487 606.537 797.26 606.407C797.032 606.261 796.772 606.147 796.479 606.066C796.186 605.984 795.886 605.911 795.577 605.846C795.04 605.732 794.528 605.602 794.04 605.456C793.552 605.309 793.121 605.122 792.747 604.895C792.389 604.651 792.096 604.342 791.869 603.968C791.657 603.594 791.552 603.114 791.552 602.529C791.552 601.976 791.674 601.488 791.918 601.065C792.161 600.642 792.487 600.293 792.893 600.016C793.3 599.74 793.755 599.528 794.259 599.382C794.763 599.235 795.284 599.162 795.82 599.162C796.634 599.162 797.382 599.325 798.065 599.65C798.764 599.975 799.309 600.504 799.699 601.236L798.113 602.285C797.869 601.878 797.544 601.553 797.138 601.309C796.747 601.049 796.268 600.919 795.698 600.919C795.438 600.919 795.17 600.951 794.894 601.016C794.633 601.081 794.398 601.179 794.186 601.309C793.975 601.439 793.796 601.61 793.649 601.821C793.519 602.016 793.454 602.244 793.454 602.504C793.454 602.748 793.527 602.96 793.674 603.138C793.836 603.301 794.048 603.447 794.308 603.577C794.585 603.708 794.894 603.821 795.235 603.919C795.593 604.017 795.959 604.098 796.333 604.163C796.837 604.26 797.317 604.391 797.772 604.553C798.227 604.7 798.626 604.903 798.967 605.163C799.309 605.423 799.577 605.748 799.772 606.139C799.967 606.529 800.065 607.009 800.065 607.578C800.065 608.228 799.935 608.781 799.675 609.237C799.414 609.692 799.065 610.066 798.626 610.359C798.203 610.635 797.715 610.839 797.162 610.969C796.625 611.099 796.073 611.164 795.503 611.164C794.528 611.164 793.682 611.017 792.966 610.725C792.267 610.416 791.633 609.855 791.064 609.042L792.576 607.871ZM811.085 602.309C810.679 601.821 810.24 601.472 809.768 601.26C809.297 601.032 808.776 600.919 808.207 600.919C807.573 600.919 807.012 601.032 806.524 601.26C806.036 601.472 805.629 601.772 805.304 602.163C804.995 602.553 804.759 603.008 804.597 603.529C804.434 604.033 804.353 604.578 804.353 605.163C804.353 605.748 804.442 606.301 804.621 606.822C804.816 607.326 805.076 607.773 805.402 608.163C805.743 608.554 806.15 608.863 806.621 609.09C807.093 609.302 807.622 609.407 808.207 609.407C809.459 609.407 810.427 608.936 811.11 607.993L812.525 609.334C811.972 609.969 811.321 610.432 810.573 610.725C809.825 611.017 809.036 611.164 808.207 611.164C807.329 611.164 806.524 611.017 805.792 610.725C805.06 610.432 804.434 610.017 803.914 609.481C803.41 608.944 803.011 608.31 802.718 607.578C802.442 606.846 802.304 606.041 802.304 605.163C802.304 604.301 802.442 603.504 802.718 602.773C803.011 602.041 803.418 601.406 803.938 600.87C804.458 600.333 805.076 599.918 805.792 599.626C806.524 599.317 807.329 599.162 808.207 599.162C809.053 599.162 809.849 599.309 810.597 599.601C811.362 599.894 812.029 600.349 812.598 600.967L811.085 602.309ZM814.974 602.163C814.974 601.642 814.958 601.154 814.925 600.699C814.893 600.244 814.877 599.829 814.877 599.455H816.682C816.682 599.764 816.69 600.073 816.706 600.382C816.722 600.691 816.731 601.008 816.731 601.333H816.779C816.909 601.057 817.088 600.789 817.316 600.528C817.56 600.268 817.844 600.04 818.17 599.845C818.495 599.634 818.861 599.471 819.267 599.357C819.674 599.227 820.113 599.162 820.585 599.162C820.715 599.162 820.845 599.17 820.975 599.187C821.105 599.203 821.235 599.235 821.365 599.284L821.243 601.211C820.918 601.114 820.577 601.065 820.219 601.065C819.048 601.065 818.194 601.447 817.657 602.211C817.137 602.96 816.877 603.992 816.877 605.309V610.871H814.974V602.163ZM833.562 608.798C832.879 609.676 832.13 610.294 831.317 610.652C830.504 610.993 829.561 611.164 828.488 611.164C827.593 611.164 826.788 611.009 826.073 610.7C825.357 610.375 824.747 609.944 824.243 609.407C823.755 608.871 823.373 608.237 823.097 607.505C822.837 606.773 822.707 605.992 822.707 605.163C822.707 604.285 822.853 603.48 823.146 602.748C823.438 602 823.845 601.366 824.365 600.845C824.886 600.309 825.504 599.894 826.219 599.601C826.935 599.309 827.715 599.162 828.561 599.162C829.358 599.162 830.09 599.301 830.756 599.577C831.423 599.837 831.992 600.227 832.464 600.748C832.952 601.252 833.326 601.878 833.586 602.626C833.846 603.358 833.976 604.195 833.976 605.139V605.748H824.756C824.788 606.236 824.902 606.708 825.097 607.163C825.308 607.602 825.577 607.993 825.902 608.334C826.227 608.659 826.609 608.92 827.049 609.115C827.488 609.31 827.967 609.407 828.488 609.407C829.317 609.407 830.016 609.261 830.586 608.968C831.155 608.676 831.667 608.245 832.122 607.676L833.562 608.798ZM831.927 604.139C831.895 603.163 831.578 602.382 830.976 601.797C830.374 601.211 829.545 600.919 828.488 600.919C827.431 600.919 826.577 601.211 825.926 601.797C825.276 602.382 824.886 603.163 824.756 604.139H831.927ZM847.36 608.798C846.677 609.676 845.929 610.294 845.116 610.652C844.303 610.993 843.359 611.164 842.286 611.164C841.392 611.164 840.587 611.009 839.871 610.7C839.156 610.375 838.546 609.944 838.042 609.407C837.554 608.871 837.172 608.237 836.895 607.505C836.635 606.773 836.505 605.992 836.505 605.163C836.505 604.285 836.651 603.48 836.944 602.748C837.237 602 837.643 601.366 838.164 600.845C838.684 600.309 839.302 599.894 840.018 599.601C840.733 599.309 841.514 599.162 842.359 599.162C843.156 599.162 843.888 599.301 844.555 599.577C845.221 599.837 845.791 600.227 846.262 600.748C846.75 601.252 847.124 601.878 847.384 602.626C847.645 603.358 847.775 604.195 847.775 605.139V605.748H838.554C838.587 606.236 838.7 606.708 838.895 607.163C839.107 607.602 839.375 607.993 839.7 608.334C840.026 608.659 840.408 608.92 840.847 609.115C841.286 609.31 841.766 609.407 842.286 609.407C843.116 609.407 843.815 609.261 844.384 608.968C844.953 608.676 845.465 608.245 845.921 607.676L847.36 608.798ZM845.726 604.139C845.693 603.163 845.376 602.382 844.774 601.797C844.173 601.211 843.343 600.919 842.286 600.919C841.229 600.919 840.375 601.211 839.725 601.797C839.074 602.382 838.684 603.163 838.554 604.139H845.726ZM850.962 602.163C850.962 601.642 850.946 601.154 850.913 600.699C850.881 600.244 850.864 599.829 850.864 599.455H852.67C852.67 599.764 852.678 600.073 852.694 600.382C852.71 600.691 852.718 601.008 852.718 601.333H852.767C852.897 601.057 853.076 600.789 853.304 600.528C853.548 600.268 853.832 600.04 854.158 599.845C854.483 599.634 854.849 599.471 855.255 599.357C855.662 599.227 856.101 599.162 856.572 599.162C857.321 599.162 857.963 599.276 858.5 599.504C859.052 599.731 859.508 600.049 859.866 600.455C860.223 600.862 860.484 601.358 860.646 601.943C860.825 602.512 860.914 603.138 860.914 603.821V610.871H859.012V604.017C859.012 603.057 858.8 602.301 858.378 601.748C857.955 601.195 857.296 600.919 856.402 600.919C855.784 600.919 855.247 601.024 854.792 601.236C854.353 601.447 853.987 601.748 853.694 602.138C853.418 602.529 853.206 602.992 853.06 603.529C852.93 604.065 852.865 604.659 852.865 605.309V610.871H850.962V602.163ZM865.004 607.871C865.378 608.342 865.785 608.716 866.224 608.993C866.679 609.269 867.249 609.407 867.932 609.407C868.224 609.407 868.517 609.375 868.81 609.31C869.119 609.245 869.395 609.139 869.639 608.993C869.883 608.846 870.078 608.668 870.225 608.456C870.371 608.228 870.444 607.96 870.444 607.651C870.444 607.342 870.371 607.09 870.225 606.895C870.094 606.7 869.916 606.537 869.688 606.407C869.46 606.261 869.2 606.147 868.907 606.066C868.615 605.984 868.314 605.911 868.005 605.846C867.468 605.732 866.956 605.602 866.468 605.456C865.98 605.309 865.549 605.122 865.175 604.895C864.817 604.651 864.525 604.342 864.297 603.968C864.086 603.594 863.98 603.114 863.98 602.529C863.98 601.976 864.102 601.488 864.346 601.065C864.59 600.642 864.915 600.293 865.321 600.016C865.728 599.74 866.183 599.528 866.688 599.382C867.192 599.235 867.712 599.162 868.249 599.162C869.062 599.162 869.81 599.325 870.493 599.65C871.192 599.975 871.737 600.504 872.127 601.236L870.542 602.285C870.298 601.878 869.972 601.553 869.566 601.309C869.176 601.049 868.696 600.919 868.127 600.919C867.867 600.919 867.598 600.951 867.322 601.016C867.062 601.081 866.826 601.179 866.614 601.309C866.403 601.439 866.224 601.61 866.078 601.821C865.948 602.016 865.883 602.244 865.883 602.504C865.883 602.748 865.956 602.96 866.102 603.138C866.265 603.301 866.476 603.447 866.736 603.577C867.013 603.708 867.322 603.821 867.663 603.919C868.021 604.017 868.387 604.098 868.761 604.163C869.265 604.26 869.745 604.391 870.2 604.553C870.656 604.7 871.054 604.903 871.395 605.163C871.737 605.423 872.005 605.748 872.2 606.139C872.396 606.529 872.493 607.009 872.493 607.578C872.493 608.228 872.363 608.781 872.103 609.237C871.843 609.692 871.493 610.066 871.054 610.359C870.631 610.635 870.143 610.839 869.59 610.969C869.054 611.099 868.501 611.164 867.932 611.164C866.956 611.164 866.11 611.017 865.395 610.725C864.695 610.416 864.061 609.855 863.492 609.042L865.004 607.871Z" fill="white"/>
<path d="M625.247 599.583C626.199 599.583 627.053 599.793 627.808 600.214C628.563 600.635 629.15 601.222 629.571 601.977C630.004 602.732 630.221 603.604 630.221 604.594C630.221 605.584 630.004 606.462 629.571 607.229C629.15 607.984 628.563 608.572 627.808 608.993C627.053 609.413 626.199 609.624 625.247 609.624C624.541 609.624 623.892 609.487 623.298 609.215C622.716 608.943 622.221 608.547 621.813 608.027V613.113H620.031V599.676H621.739V601.235C622.135 600.69 622.636 600.282 623.242 600.01C623.849 599.725 624.517 599.583 625.247 599.583ZM625.098 608.065C625.729 608.065 626.292 607.922 626.787 607.638C627.294 607.341 627.69 606.932 627.975 606.413C628.272 605.881 628.42 605.274 628.42 604.594C628.42 603.913 628.272 603.313 627.975 602.794C627.69 602.262 627.294 601.853 626.787 601.569C626.292 601.284 625.729 601.142 625.098 601.142C624.48 601.142 623.917 601.29 623.409 601.587C622.914 601.872 622.518 602.274 622.221 602.794C621.937 603.313 621.795 603.913 621.795 604.594C621.795 605.274 621.937 605.881 622.221 606.413C622.506 606.932 622.902 607.341 623.409 607.638C623.917 607.922 624.48 608.065 625.098 608.065ZM637.081 609.624C636.104 609.624 635.225 609.407 634.446 608.974C633.666 608.541 633.054 607.947 632.608 607.192C632.175 606.425 631.959 605.559 631.959 604.594C631.959 603.629 632.175 602.769 632.608 602.014C633.054 601.247 633.666 600.653 634.446 600.232C635.225 599.799 636.104 599.583 637.081 599.583C638.058 599.583 638.931 599.799 639.698 600.232C640.477 600.653 641.084 601.247 641.517 602.014C641.962 602.769 642.185 603.629 642.185 604.594C642.185 605.559 641.962 606.425 641.517 607.192C641.084 607.947 640.477 608.541 639.698 608.974C638.931 609.407 638.058 609.624 637.081 609.624ZM637.081 608.065C637.712 608.065 638.275 607.922 638.77 607.638C639.277 607.341 639.673 606.932 639.958 606.413C640.242 605.881 640.385 605.274 640.385 604.594C640.385 603.913 640.242 603.313 639.958 602.794C639.673 602.262 639.277 601.853 638.77 601.569C638.275 601.284 637.712 601.142 637.081 601.142C636.45 601.142 635.881 601.284 635.373 601.569C634.879 601.853 634.483 602.262 634.186 602.794C633.901 603.313 633.759 603.913 633.759 604.594C633.759 605.274 633.901 605.881 634.186 606.413C634.483 606.932 634.879 607.341 635.373 607.638C635.881 607.922 636.45 608.065 637.081 608.065ZM659.447 599.676L655.773 609.512H654.065L651.225 602.051L648.349 609.512H646.641L642.985 599.676H644.674L647.532 607.508L650.502 599.676H652.005L654.919 607.545L657.851 599.676H659.447ZM670.059 604.65C670.059 604.786 670.047 604.965 670.022 605.188H662.041C662.153 606.054 662.53 606.753 663.173 607.285C663.829 607.805 664.64 608.065 665.605 608.065C666.78 608.065 667.727 607.669 668.444 606.877L669.428 608.027C668.983 608.547 668.426 608.943 667.758 609.215C667.102 609.487 666.366 609.624 665.549 609.624C664.51 609.624 663.588 609.413 662.784 608.993C661.979 608.559 661.355 607.959 660.909 607.192C660.476 606.425 660.26 605.559 660.26 604.594C660.26 603.641 660.47 602.781 660.891 602.014C661.324 601.247 661.911 600.653 662.654 600.232C663.409 599.799 664.256 599.583 665.196 599.583C666.137 599.583 666.972 599.799 667.702 600.232C668.444 600.653 669.02 601.247 669.428 602.014C669.849 602.781 670.059 603.66 670.059 604.65ZM665.196 601.086C664.343 601.086 663.625 601.346 663.044 601.866C662.474 602.385 662.14 603.066 662.041 603.907H668.352C668.253 603.078 667.912 602.404 667.331 601.884C666.762 601.352 666.05 601.086 665.196 601.086ZM674.426 601.327C674.735 600.758 675.193 600.325 675.8 600.028C676.406 599.731 677.142 599.583 678.008 599.583V601.309C677.909 601.297 677.773 601.29 677.6 601.29C676.635 601.29 675.874 601.581 675.317 602.163C674.773 602.732 674.5 603.548 674.5 604.613V609.512H672.719V599.676H674.426V601.327ZM689.189 604.65C689.189 604.786 689.177 604.965 689.152 605.188H681.171C681.283 606.054 681.66 606.753 682.303 607.285C682.959 607.805 683.77 608.065 684.735 608.065C685.91 608.065 686.857 607.669 687.574 606.877L688.558 608.027C688.113 608.547 687.556 608.943 686.888 609.215C686.232 609.487 685.496 609.624 684.679 609.624C683.64 609.624 682.718 609.413 681.914 608.993C681.109 608.559 680.485 607.959 680.039 607.192C679.606 606.425 679.39 605.559 679.39 604.594C679.39 603.641 679.6 602.781 680.021 602.014C680.454 601.247 681.041 600.653 681.784 600.232C682.539 599.799 683.386 599.583 684.326 599.583C685.267 599.583 686.102 599.799 686.832 600.232C687.574 600.653 688.15 601.247 688.558 602.014C688.979 602.781 689.189 603.66 689.189 604.65ZM684.326 601.086C683.473 601.086 682.755 601.346 682.174 601.866C681.604 602.385 681.27 603.066 681.171 603.907H687.482C687.383 603.078 687.042 602.404 686.461 601.884C685.892 601.352 685.18 601.086 684.326 601.086ZM701.128 595.741V609.512H699.421V607.953C699.025 608.498 698.524 608.912 697.918 609.197C697.311 609.481 696.643 609.624 695.913 609.624C694.961 609.624 694.107 609.413 693.352 608.993C692.597 608.572 692.003 607.984 691.57 607.229C691.15 606.462 690.939 605.584 690.939 604.594C690.939 603.604 691.15 602.732 691.57 601.977C692.003 601.222 692.597 600.635 693.352 600.214C694.107 599.793 694.961 599.583 695.913 599.583C696.618 599.583 697.268 599.719 697.862 599.991C698.456 600.251 698.951 600.641 699.347 601.16V595.741H701.128ZM696.062 608.065C696.68 608.065 697.243 607.922 697.751 607.638C698.258 607.341 698.654 606.932 698.938 606.413C699.223 605.881 699.365 605.274 699.365 604.594C699.365 603.913 699.223 603.313 698.938 602.794C698.654 602.262 698.258 601.853 697.751 601.569C697.243 601.284 696.68 601.142 696.062 601.142C695.431 601.142 694.862 601.284 694.354 601.569C693.859 601.853 693.463 602.262 693.166 602.794C692.882 603.313 692.74 603.913 692.74 604.594C692.74 605.274 692.882 605.881 693.166 606.413C693.463 606.932 693.859 607.341 694.354 607.638C694.862 607.922 695.431 608.065 696.062 608.065ZM715.07 599.583C716.023 599.583 716.877 599.793 717.631 600.214C718.386 600.635 718.974 601.222 719.395 601.977C719.828 602.732 720.044 603.604 720.044 604.594C720.044 605.584 719.828 606.462 719.395 607.229C718.974 607.984 718.386 608.572 717.631 608.993C716.877 609.413 716.023 609.624 715.07 609.624C714.34 609.624 713.672 609.481 713.066 609.197C712.46 608.912 711.958 608.498 711.563 607.953V609.512H709.855V595.741H711.637V601.16C712.033 600.641 712.528 600.251 713.122 599.991C713.715 599.719 714.365 599.583 715.07 599.583ZM714.922 608.065C715.553 608.065 716.116 607.922 716.611 607.638C717.118 607.341 717.514 606.932 717.798 606.413C718.095 605.881 718.244 605.274 718.244 604.594C718.244 603.913 718.095 603.313 717.798 602.794C717.514 602.262 717.118 601.853 716.611 601.569C716.116 601.284 715.553 601.142 714.922 601.142C714.303 601.142 713.74 601.284 713.233 601.569C712.726 601.853 712.33 602.262 712.045 602.794C711.76 603.313 711.618 603.913 711.618 604.594C711.618 605.274 711.76 605.881 712.045 606.413C712.33 606.932 712.726 607.341 713.233 607.638C713.74 607.922 714.303 608.065 714.922 608.065ZM731.124 599.676L726.354 610.496C725.934 611.498 725.439 612.203 724.87 612.612C724.313 613.02 723.638 613.224 722.847 613.224C722.364 613.224 721.894 613.144 721.436 612.983C720.991 612.834 720.619 612.612 720.322 612.315L721.083 610.978C721.591 611.461 722.178 611.702 722.847 611.702C723.28 611.702 723.638 611.585 723.923 611.35C724.22 611.127 724.486 610.737 724.721 610.18L725.037 609.494L720.694 599.676H722.55L725.983 607.545L729.379 599.676H731.124Z" fill="white"/>
<rect x="635.433" y="379.188" width="219.385" height="70.5689" rx="8.77541" fill="#6582EB"/>
<path d="M685.325 406.283C687.446 406.283 689.116 406.79 690.332 407.804C691.549 408.818 692.158 410.215 692.158 411.993C692.158 413.772 691.549 415.168 690.332 416.182C689.116 417.196 687.446 417.703 685.325 417.703H681.276V422.664H678.936V406.283H685.325ZM685.254 415.667C686.737 415.667 687.868 415.355 688.648 414.731C689.428 414.091 689.818 413.179 689.818 411.993C689.818 410.807 689.428 409.903 688.648 409.279C687.868 408.639 686.737 408.319 685.254 408.319H681.276V415.667H685.254Z" fill="white"/>
<path d="M699.581 410.144C701.297 410.144 702.608 410.566 703.512 411.408C704.433 412.25 704.893 413.506 704.893 415.176V422.664H702.764V421.026C702.389 421.603 701.851 422.048 701.149 422.36C700.462 422.656 699.643 422.804 698.692 422.804C697.303 422.804 696.188 422.469 695.345 421.798C694.519 421.127 694.105 420.246 694.105 419.154C694.105 418.062 694.503 417.188 695.299 416.533C696.094 415.862 697.358 415.527 699.09 415.527H702.647V415.082C702.647 414.115 702.366 413.374 701.804 412.859C701.243 412.344 700.416 412.087 699.324 412.087C698.59 412.087 697.873 412.211 697.171 412.461C696.469 412.695 695.876 413.015 695.392 413.421L694.456 411.736C695.096 411.221 695.86 410.831 696.75 410.566C697.639 410.285 698.583 410.144 699.581 410.144ZM699.066 421.073C699.924 421.073 700.665 420.885 701.289 420.511C701.913 420.121 702.366 419.575 702.647 418.873V417.141H699.183C697.28 417.141 696.328 417.781 696.328 419.06C696.328 419.684 696.57 420.176 697.054 420.534C697.537 420.893 698.208 421.073 699.066 421.073Z" fill="white"/>
<path d="M715.683 416.205C716.51 416.424 717.149 416.775 717.602 417.258C718.054 417.742 718.28 418.343 718.28 419.06C718.28 419.793 718.031 420.449 717.532 421.026C717.032 421.588 716.338 422.032 715.449 422.36C714.575 422.672 713.592 422.828 712.5 422.828C711.58 422.828 710.675 422.711 709.786 422.477C708.912 422.227 708.132 421.876 707.446 421.424L708.124 419.715C708.717 420.09 709.396 420.386 710.16 420.605C710.925 420.807 711.697 420.909 712.477 420.909C713.538 420.909 714.38 420.729 715.004 420.371C715.644 419.996 715.964 419.497 715.964 418.873C715.964 418.296 715.706 417.851 715.191 417.539C714.692 417.227 713.982 417.071 713.062 417.071H710.792V415.456H712.898C713.741 415.456 714.404 415.308 714.887 415.012C715.371 414.715 715.613 414.31 715.613 413.795C715.613 413.233 715.324 412.797 714.747 412.484C714.185 412.172 713.421 412.016 712.453 412.016C711.221 412.016 709.918 412.336 708.545 412.976L707.937 411.244C709.45 410.48 711.034 410.098 712.687 410.098C713.686 410.098 714.583 410.238 715.379 410.519C716.174 410.8 716.798 411.197 717.251 411.712C717.703 412.227 717.929 412.812 717.929 413.467C717.929 414.076 717.727 414.622 717.321 415.105C716.915 415.589 716.369 415.956 715.683 416.205Z" fill="white"/>
<path d="M728.505 410.144C729.707 410.144 730.783 410.41 731.735 410.94C732.686 411.47 733.427 412.211 733.958 413.163C734.504 414.115 734.777 415.215 734.777 416.463C734.777 417.711 734.504 418.818 733.958 419.786C733.427 420.737 732.686 421.478 731.735 422.009C730.783 422.539 729.707 422.804 728.505 422.804C727.616 422.804 726.797 422.633 726.048 422.29C725.315 421.946 724.691 421.447 724.176 420.792V427.204H721.93V410.261H724.083V412.227C724.582 411.541 725.214 411.026 725.978 410.683C726.742 410.324 727.585 410.144 728.505 410.144ZM728.318 420.839C729.114 420.839 729.824 420.659 730.448 420.3C731.087 419.926 731.586 419.411 731.945 418.756C732.32 418.085 732.507 417.321 732.507 416.463C732.507 415.605 732.32 414.848 731.945 414.193C731.586 413.522 731.087 413.007 730.448 412.648C729.824 412.289 729.114 412.11 728.318 412.11C727.538 412.11 726.828 412.297 726.189 412.672C725.565 413.031 725.065 413.538 724.691 414.193C724.332 414.848 724.153 415.605 724.153 416.463C724.153 417.321 724.332 418.085 724.691 418.756C725.05 419.411 725.549 419.926 726.189 420.3C726.828 420.659 727.538 420.839 728.318 420.839Z" fill="white"/>
<path d="M749.484 416.533C749.484 416.704 749.468 416.931 749.437 417.212H739.375C739.515 418.304 739.991 419.185 740.802 419.856C741.629 420.511 742.651 420.839 743.868 420.839C745.35 420.839 746.543 420.339 747.448 419.341L748.688 420.792C748.127 421.447 747.425 421.946 746.582 422.29C745.755 422.633 744.827 422.804 743.797 422.804C742.487 422.804 741.325 422.539 740.311 422.009C739.297 421.463 738.509 420.706 737.947 419.739C737.401 418.772 737.128 417.68 737.128 416.463C737.128 415.261 737.393 414.177 737.924 413.21C738.47 412.243 739.211 411.494 740.147 410.963C741.098 410.417 742.167 410.144 743.353 410.144C744.538 410.144 745.591 410.417 746.512 410.963C747.448 411.494 748.173 412.243 748.688 413.21C749.219 414.177 749.484 415.285 749.484 416.533ZM743.353 412.04C742.276 412.04 741.371 412.367 740.638 413.023C739.921 413.678 739.499 414.536 739.375 415.597H747.331C747.206 414.552 746.777 413.701 746.044 413.046C745.326 412.375 744.429 412.04 743.353 412.04Z" fill="white"/>
<path d="M770.871 410.261V422.664H753.203V410.261H755.45V420.698H760.925V410.261H763.172V420.698H768.624V410.261H770.871Z" fill="white"/>
<path d="M775.467 410.261H777.713V419.294L785.319 410.261H787.355V422.664H785.108V413.631L777.526 422.664H775.467V410.261Z" fill="white"/>
<path d="M801.193 412.227H796.653V422.664H794.406V412.227H789.866V410.261H801.193V412.227Z" fill="white"/>
<path d="M809.457 414.474C811.033 414.489 812.234 414.848 813.061 415.55C813.888 416.252 814.301 417.243 814.301 418.522C814.301 419.864 813.849 420.901 812.944 421.634C812.055 422.352 810.775 422.703 809.106 422.687L803.724 422.664V410.261H805.97V414.45L809.457 414.474ZM808.919 420.979C809.933 420.995 810.697 420.792 811.212 420.371C811.743 419.949 812.008 419.325 812.008 418.499C812.008 417.687 811.75 417.095 811.236 416.72C810.736 416.346 809.964 416.151 808.919 416.135L805.97 416.088V420.956L808.919 420.979Z" fill="white"/>
<path d="M690.113 493.1C691.096 493.412 691.86 493.919 692.406 494.621C692.968 495.308 693.249 496.119 693.249 497.055C693.249 498.038 692.929 498.896 692.289 499.629C691.65 500.347 690.792 500.9 689.715 501.291C688.654 501.681 687.492 501.876 686.229 501.876C685.136 501.876 684.037 501.727 682.929 501.431C681.837 501.119 680.823 500.659 679.887 500.05L680.87 497.827C681.587 498.311 682.383 498.685 683.257 498.95C684.13 499.2 684.996 499.325 685.854 499.325C687.087 499.325 688.108 499.083 688.92 498.599C689.747 498.116 690.16 497.453 690.16 496.61C690.16 495.893 689.864 495.347 689.271 494.972C688.678 494.598 687.859 494.411 686.814 494.411H682.999V492.024H686.58C687.484 492.024 688.194 491.836 688.709 491.462C689.224 491.088 689.481 490.581 689.481 489.941C689.481 489.177 689.13 488.584 688.428 488.162C687.742 487.741 686.86 487.531 685.784 487.531C685.051 487.531 684.294 487.64 683.514 487.858C682.734 488.061 682.001 488.365 681.314 488.771L680.355 486.314C681.197 485.861 682.087 485.526 683.023 485.308C683.974 485.074 684.918 484.957 685.854 484.957C687.071 484.957 688.186 485.144 689.2 485.518C690.23 485.893 691.049 486.431 691.658 487.133C692.266 487.819 692.57 488.631 692.57 489.567C692.57 490.378 692.352 491.088 691.915 491.696C691.478 492.304 690.878 492.773 690.113 493.1Z" fill="#454545"/>
<path d="M701.262 489.005C703.103 489.005 704.507 489.45 705.474 490.339C706.457 491.212 706.948 492.538 706.948 494.317V501.642H704.187V500.12C703.828 500.666 703.313 501.088 702.642 501.384C701.987 501.665 701.192 501.805 700.255 501.805C699.319 501.805 698.5 501.649 697.798 501.337C697.096 501.01 696.55 500.565 696.16 500.003C695.786 499.426 695.599 498.779 695.599 498.061C695.599 496.938 696.012 496.041 696.839 495.37C697.681 494.684 699 494.34 700.794 494.34H704.023V494.153C704.023 493.28 703.758 492.609 703.227 492.141C702.713 491.673 701.94 491.439 700.911 491.439C700.209 491.439 699.514 491.548 698.828 491.766C698.157 491.985 697.588 492.289 697.12 492.679L695.973 490.549C696.628 490.05 697.416 489.668 698.337 489.403C699.257 489.138 700.232 489.005 701.262 489.005ZM700.864 499.676C701.597 499.676 702.245 499.512 702.806 499.184C703.383 498.841 703.789 498.358 704.023 497.734V496.283H701.004C699.319 496.283 698.477 496.836 698.477 497.944C698.477 498.475 698.688 498.896 699.109 499.208C699.53 499.52 700.115 499.676 700.864 499.676Z" fill="#454545"/>
<path d="M722.783 489.145V501.642H719.882V491.626H713.727V501.642H710.802V489.145H722.783Z" fill="#454545"/>
<path d="M733.891 489.005C735.108 489.005 736.192 489.27 737.144 489.801C738.111 490.331 738.868 491.08 739.414 492.047C739.96 493.014 740.233 494.13 740.233 495.393C740.233 496.657 739.96 497.78 739.414 498.763C738.868 499.73 738.111 500.479 737.144 501.01C736.192 501.54 735.108 501.805 733.891 501.805C732.206 501.805 730.872 501.244 729.889 500.12V506.181H726.964V489.145H729.749V490.783C730.233 490.191 730.825 489.746 731.527 489.45C732.245 489.153 733.033 489.005 733.891 489.005ZM733.563 499.301C734.64 499.301 735.521 498.943 736.208 498.225C736.91 497.507 737.261 496.563 737.261 495.393C737.261 494.223 736.91 493.28 736.208 492.562C735.521 491.844 734.64 491.485 733.563 491.485C732.861 491.485 732.229 491.649 731.668 491.977C731.106 492.289 730.662 492.741 730.334 493.334C730.006 493.927 729.843 494.613 729.843 495.393C729.843 496.173 730.006 496.86 730.334 497.453C730.662 498.046 731.106 498.506 731.668 498.833C732.229 499.145 732.861 499.301 733.563 499.301Z" fill="#454545"/>
<path d="M755.078 495.464C755.078 495.666 755.063 495.955 755.032 496.329H745.227C745.398 497.25 745.843 497.983 746.56 498.529C747.294 499.06 748.198 499.325 749.275 499.325C750.648 499.325 751.779 498.872 752.668 497.968L754.236 499.769C753.674 500.44 752.964 500.947 752.106 501.291C751.248 501.634 750.281 501.805 749.205 501.805C747.832 501.805 746.623 501.532 745.578 500.986C744.532 500.44 743.721 499.684 743.144 498.716C742.582 497.734 742.301 496.626 742.301 495.393C742.301 494.177 742.574 493.085 743.12 492.117C743.682 491.134 744.454 490.37 745.437 489.824C746.42 489.278 747.528 489.005 748.76 489.005C749.977 489.005 751.061 489.278 752.013 489.824C752.98 490.354 753.729 491.111 754.259 492.094C754.805 493.061 755.078 494.184 755.078 495.464ZM748.76 491.345C747.824 491.345 747.028 491.626 746.373 492.187C745.734 492.734 745.344 493.467 745.203 494.387H752.294C752.169 493.482 751.787 492.749 751.147 492.187C750.507 491.626 749.712 491.345 748.76 491.345Z" fill="#454545"/>
<path d="M767.953 491.626H763.577V501.642H760.652V491.626H756.253V489.145H767.953V491.626Z" fill="#454545"/>
<path d="M770.309 489.145H773.234V497.383L780.138 489.145H782.805V501.642H779.88V493.404L773 501.642H770.309V489.145Z" fill="#454545"/>
<path d="M796.873 491.626H792.497V501.642H789.572V491.626H785.172V489.145H796.873V491.626Z" fill="#454545"/>
<path d="M805.5 493.264C807.092 493.264 808.308 493.623 809.151 494.34C810.009 495.058 810.438 496.072 810.438 497.383C810.438 498.755 809.97 499.816 809.034 500.565C808.098 501.314 806.78 501.681 805.079 501.665L799.229 501.642V489.145H802.154V493.241L805.5 493.264ZM804.822 499.512C805.68 499.528 806.335 499.348 806.787 498.974C807.24 498.599 807.466 498.053 807.466 497.336C807.466 496.634 807.248 496.119 806.811 495.791C806.374 495.464 805.711 495.292 804.822 495.276L802.154 495.253V499.489L804.822 499.512Z" fill="#454545"/>
<path d="M823.194 471.372L824.179 434.919C824.241 432.616 826.99 431.461 828.678 433.029L856.392 458.764C858.229 460.47 856.925 463.539 854.422 463.4L838.994 462.543C838.192 462.498 837.413 462.815 836.871 463.407L827.844 473.254C826.17 475.081 823.127 473.849 823.194 471.372Z" fill="#1ACF7D" stroke="#1ACF7D" stroke-width="2.67778"/>
<rect x="841.744" y="503.978" width="123.178" height="48.2001" rx="8.03335" fill="#1ACF7D"/>
<path d="M860.533 528.908H857.052V536.807H853.624V518.063H857.052V525.909H860.64L866.023 518.063H869.718L863.318 527.141L869.959 536.807H866.023L860.533 528.908Z" fill="white"/>
<path d="M885.273 522.508V536.807H881.926V525.347H876.571L876.437 528.185C876.348 530.077 876.169 531.666 875.901 532.951C875.651 534.219 875.214 535.228 874.589 535.977C873.982 536.709 873.143 537.075 872.072 537.075C871.572 537.075 870.956 536.977 870.224 536.781L870.385 533.969C870.635 534.023 870.849 534.049 871.028 534.049C871.706 534.049 872.215 533.782 872.554 533.246C872.893 532.693 873.107 532.041 873.197 531.291C873.304 530.524 873.393 529.435 873.464 528.024L873.705 522.508H885.273Z" fill="white"/>
<path d="M889.781 522.508H893.129V531.934L901.028 522.508H904.081V536.807H900.733V527.382L892.861 536.807H889.781V522.508Z" fill="white"/>
<path d="M921.972 529.738C921.972 529.97 921.954 530.3 921.919 530.729H910.699C910.895 531.782 911.404 532.621 912.225 533.246C913.064 533.853 914.1 534.156 915.331 534.156C916.902 534.156 918.197 533.639 919.214 532.603L921.008 534.665C920.366 535.433 919.553 536.013 918.571 536.406C917.59 536.799 916.483 536.995 915.251 536.995C913.68 536.995 912.297 536.683 911.1 536.058C909.904 535.433 908.976 534.567 908.316 533.46C907.673 532.336 907.352 531.068 907.352 529.658C907.352 528.265 907.664 527.016 908.289 525.909C908.931 524.784 909.815 523.909 910.94 523.285C912.064 522.66 913.332 522.347 914.742 522.347C916.135 522.347 917.375 522.66 918.464 523.285C919.571 523.892 920.428 524.757 921.035 525.882C921.66 526.989 921.972 528.274 921.972 529.738ZM914.742 525.025C913.671 525.025 912.761 525.347 912.011 525.989C911.279 526.614 910.833 527.453 910.672 528.506H918.786C918.643 527.471 918.206 526.632 917.474 525.989C916.742 525.347 915.831 525.025 914.742 525.025Z" fill="white"/>
<path d="M925.633 522.508H928.981V528.319H936.184V522.508H939.531V536.807H936.184V531.157H928.981V536.807H925.633V522.508Z" fill="white"/>
<path d="M955.344 525.347H950.336V536.807H946.989V525.347H941.955V522.508H955.344V525.347Z" fill="white"/>
</g>
<defs>
<filter id="filter0_d" x="447" y="105" width="599.177" height="561.15" filterUnits="userSpaceOnUse" color-interpolation-filters="sRGB">
<feFlood flood-opacity="0" result="BackgroundImageFix"/>
<feColorMatrix in="SourceAlpha" type="matrix" values="0 0 0 0 0 0 0 0 0 0 0 0 0 0 0 0 0 0 127 0"/>
<feOffset dy="2"/>
<feGaussianBlur stdDeviation="5"/>
<feColorMatrix type="matrix" values="0 0 0 0 0 0 0 0 0 0 0 0 0 0 0 0 0 0 0.3 0"/>
<feBlend mode="normal" in2="BackgroundImageFix" result="effect1_dropShadow"/>
<feBlend mode="normal" in="SourceGraphic" in2="effect1_dropShadow" result="shape"/>
</filter>
<clipPath id="clip0">
<rect width="1495" height="766" fill="white"/>
</clipPath>
</defs>
</svg>
