<svg width="84" height="18" viewBox="0 0 84 18" fill="none" xmlns="http://www.w3.org/2000/svg">
<rect x="7.50873" y="4.80316" width="15.7474" height="12.3753" rx="3.00279" stroke="#0000FF" stroke-width="1.48817"/>
<rect x="0.744083" y="0.744083" width="15.7474" height="12.3753" rx="3.00279" stroke="#0000FF" stroke-width="1.48817"/>
<path d="M38.4208 12.8643C37.8268 12.8643 37.2511 12.78 36.6938 12.6113C36.1438 12.4427 35.7074 12.219 35.3848 11.9403L35.8798 10.8293C36.1951 11.0787 36.5801 11.284 37.0348 11.4453C37.4968 11.5993 37.9588 11.6763 38.4208 11.6763C38.9928 11.6763 39.4181 11.5847 39.6968 11.4013C39.9828 11.218 40.1258 10.976 40.1258 10.6753C40.1258 10.4553 40.0451 10.2757 39.8838 10.1363C39.7298 9.98967 39.5318 9.876 39.2898 9.79534C39.0478 9.71467 38.7178 9.623 38.2998 9.52034C37.7131 9.381 37.2364 9.24167 36.8698 9.10234C36.5104 8.963 36.1988 8.74667 35.9348 8.45334C35.6781 8.15267 35.5498 7.74934 35.5498 7.24334C35.5498 6.818 35.6634 6.433 35.8908 6.08834C36.1254 5.73634 36.4738 5.45767 36.9358 5.25234C37.4051 5.047 37.9771 4.94434 38.6518 4.94434C39.1211 4.94434 39.5831 5.003 40.0378 5.12034C40.4924 5.23767 40.8848 5.40634 41.2148 5.62634L40.7638 6.73734C40.4264 6.53934 40.0744 6.389 39.7078 6.28634C39.3411 6.18367 38.9854 6.13234 38.6408 6.13234C38.0761 6.13234 37.6544 6.22767 37.3758 6.41834C37.1044 6.609 36.9688 6.862 36.9688 7.17734C36.9688 7.39734 37.0458 7.577 37.1998 7.71634C37.3611 7.85567 37.5628 7.96567 37.8048 8.04634C38.0468 8.127 38.3768 8.21867 38.7948 8.32134C39.3668 8.45334 39.8361 8.59267 40.2028 8.73934C40.5694 8.87867 40.8811 9.095 41.1378 9.38834C41.4018 9.68167 41.5338 10.0777 41.5338 10.5763C41.5338 11.0017 41.4164 11.3867 41.1818 11.7313C40.9544 12.076 40.6061 12.351 40.1368 12.5563C39.6674 12.7617 39.0954 12.8643 38.4208 12.8643Z" fill="#0000FF"/>
<path d="M45.9517 12.8383C45.2877 12.8383 44.6917 12.6983 44.1637 12.4183C43.6357 12.1383 43.2237 11.7503 42.9277 11.2543C42.6317 10.7503 42.4837 10.1823 42.4837 9.55034C42.4837 8.91834 42.6317 8.35434 42.9277 7.85834C43.2237 7.36234 43.6317 6.97434 44.1517 6.69434C44.6797 6.41434 45.2797 6.27434 45.9517 6.27434C46.5837 6.27434 47.1357 6.40234 47.6077 6.65834C48.0877 6.91434 48.4477 7.28234 48.6877 7.76234L47.5357 8.43434C47.3517 8.13834 47.1197 7.91834 46.8397 7.77434C46.5677 7.62234 46.2677 7.54634 45.9397 7.54634C45.3797 7.54634 44.9157 7.73034 44.5477 8.09834C44.1797 8.45834 43.9957 8.94234 43.9957 9.55034C43.9957 10.1583 44.1757 10.6463 44.5357 11.0143C44.9037 11.3743 45.3717 11.5543 45.9397 11.5543C46.2677 11.5543 46.5677 11.4823 46.8397 11.3383C47.1197 11.1863 47.3517 10.9623 47.5357 10.6663L48.6877 11.3383C48.4397 11.8183 48.0757 12.1903 47.5957 12.4543C47.1237 12.7103 46.5757 12.8383 45.9517 12.8383Z" fill="#0000FF"/>
<path d="M51.5324 7.28234C51.9644 6.61034 52.7244 6.27434 53.8124 6.27434V7.70234C53.6844 7.67834 53.5684 7.66634 53.4644 7.66634C52.8804 7.66634 52.4244 7.83834 52.0964 8.18234C51.7684 8.51834 51.6044 9.00634 51.6044 9.64634V12.7543H50.1044V6.34634H51.5324V7.28234Z" fill="#0000FF"/>
<path d="M61.1703 9.58634C61.1703 9.69034 61.1623 9.83834 61.1463 10.0303H56.1183C56.2063 10.5023 56.4343 10.8783 56.8023 11.1583C57.1783 11.4303 57.6423 11.5663 58.1943 11.5663C58.8983 11.5663 59.4783 11.3343 59.9343 10.8703L60.7383 11.7943C60.4503 12.1383 60.0863 12.3983 59.6463 12.5743C59.2063 12.7503 58.7103 12.8383 58.1583 12.8383C57.4543 12.8383 56.8343 12.6983 56.2983 12.4183C55.7623 12.1383 55.3463 11.7503 55.0503 11.2543C54.7623 10.7503 54.6183 10.1823 54.6183 9.55034C54.6183 8.92634 54.7583 8.36634 55.0383 7.87034C55.3263 7.36634 55.7223 6.97434 56.2263 6.69434C56.7303 6.41434 57.2983 6.27434 57.9303 6.27434C58.5543 6.27434 59.1103 6.41434 59.5983 6.69434C60.0943 6.96634 60.4783 7.35434 60.7503 7.85834C61.0303 8.35434 61.1703 8.93034 61.1703 9.58634ZM57.9303 7.47434C57.4503 7.47434 57.0423 7.61834 56.7063 7.90634C56.3783 8.18634 56.1783 8.56234 56.1063 9.03434H59.7423C59.6783 8.57034 59.4823 8.19434 59.1543 7.90634C58.8263 7.61834 58.4183 7.47434 57.9303 7.47434Z" fill="#0000FF"/>
<path d="M68.7551 9.58634C68.7551 9.69034 68.7471 9.83834 68.7311 10.0303H63.7031C63.7911 10.5023 64.0191 10.8783 64.3871 11.1583C64.7631 11.4303 65.2271 11.5663 65.7791 11.5663C66.4831 11.5663 67.0631 11.3343 67.5191 10.8703L68.3231 11.7943C68.0351 12.1383 67.6711 12.3983 67.2311 12.5743C66.7911 12.7503 66.2951 12.8383 65.7431 12.8383C65.0391 12.8383 64.4191 12.6983 63.8831 12.4183C63.3471 12.1383 62.9311 11.7503 62.6351 11.2543C62.3471 10.7503 62.2031 10.1823 62.2031 9.55034C62.2031 8.92634 62.3431 8.36634 62.6231 7.87034C62.9111 7.36634 63.3071 6.97434 63.8111 6.69434C64.3151 6.41434 64.8831 6.27434 65.5151 6.27434C66.1391 6.27434 66.6951 6.41434 67.1831 6.69434C67.6791 6.96634 68.0631 7.35434 68.3351 7.85834C68.6151 8.35434 68.7551 8.93034 68.7551 9.58634ZM65.5151 7.47434C65.0351 7.47434 64.6271 7.61834 64.2911 7.90634C63.9631 8.18634 63.7631 8.56234 63.6911 9.03434H67.3271C67.2631 8.57034 67.0671 8.19434 66.7391 7.90634C66.4111 7.61834 66.0031 7.47434 65.5151 7.47434Z" fill="#0000FF"/>
<path d="M73.952 6.27434C74.76 6.27434 75.408 6.51034 75.896 6.98234C76.384 7.45434 76.628 8.15434 76.628 9.08234V12.7543H75.128V9.27434C75.128 8.71434 74.996 8.29434 74.732 8.01434C74.468 7.72634 74.092 7.58234 73.604 7.58234C73.052 7.58234 72.616 7.75034 72.296 8.08634C71.976 8.41434 71.816 8.89034 71.816 9.51434V12.7543H70.316V6.34634H71.744V7.17434C71.992 6.87834 72.304 6.65434 72.68 6.50234C73.056 6.35034 73.48 6.27434 73.952 6.27434Z" fill="#0000FF"/>
<path d="M80.6308 12.8383C80.1108 12.8383 79.6028 12.7703 79.1068 12.6343C78.6108 12.4983 78.2148 12.3263 77.9188 12.1183L78.4948 10.9783C78.7828 11.1703 79.1268 11.3263 79.5268 11.4463C79.9348 11.5583 80.3348 11.6143 80.7268 11.6143C81.6228 11.6143 82.0708 11.3783 82.0708 10.9063C82.0708 10.6823 81.9548 10.5263 81.7228 10.4383C81.4988 10.3503 81.1348 10.2663 80.6308 10.1863C80.1028 10.1063 79.6708 10.0143 79.3348 9.91034C79.0068 9.80634 78.7188 9.62634 78.4708 9.37034C78.2308 9.10634 78.1108 8.74234 78.1108 8.27834C78.1108 7.67034 78.3628 7.18634 78.8668 6.82634C79.3788 6.45834 80.0668 6.27434 80.9308 6.27434C81.3708 6.27434 81.8108 6.32634 82.2508 6.43034C82.6908 6.52634 83.0508 6.65834 83.3308 6.82634L82.7548 7.96634C82.2108 7.64634 81.5988 7.48634 80.9188 7.48634C80.4788 7.48634 80.1428 7.55434 79.9108 7.69034C79.6868 7.81834 79.5748 7.99034 79.5748 8.20634C79.5748 8.44634 79.6948 8.61834 79.9348 8.72234C80.1828 8.81834 80.5628 8.91034 81.0748 8.99834C81.5868 9.07834 82.0068 9.17034 82.3348 9.27434C82.6628 9.37834 82.9428 9.55434 83.1748 9.80234C83.4148 10.0503 83.5348 10.4023 83.5348 10.8583C83.5348 11.4583 83.2748 11.9383 82.7548 12.2983C82.2348 12.6583 81.5268 12.8383 80.6308 12.8383Z" fill="#0000FF"/>
</svg>
