<svg width="1495" height="766" viewBox="0 0 1495 766" fill="none" xmlns="http://www.w3.org/2000/svg">
<g clip-path="url(#clip0)">
<rect width="1495" height="766" fill="white"/>
<path d="M28.525 30.4255C30.8043 31.0378 32.5393 32.0924 33.7299 33.5893C34.9206 35.0521 35.516 36.8891 35.516 39.1004C35.516 42.2302 34.3593 44.6625 32.046 46.3975C29.7327 48.1325 26.3818 49 21.9933 49H5.05176V13.2798H21.0238C25.038 13.2798 28.1678 14.0793 30.4131 15.6782C32.6583 17.2771 33.781 19.5393 33.781 22.465C33.781 24.3361 33.3217 25.952 32.4032 27.3127C31.5187 28.6735 30.226 29.7111 28.525 30.4255ZM11.5834 28.5374H20.4625C22.6057 28.5374 24.2386 28.1122 25.3612 27.2617C26.4839 26.4112 27.0452 25.1525 27.0452 23.4856C27.0452 21.8186 26.4839 20.5599 25.3612 19.7094C24.2386 18.8249 22.6057 18.3827 20.4625 18.3827H11.5834V28.5374ZM21.7892 43.8971C26.4839 43.8971 28.8312 42.1281 28.8312 38.5901C28.8312 35.1201 26.4839 33.3852 21.7892 33.3852H11.5834V43.8971H21.7892Z" fill="black"/>
<path d="M52.5133 21.4444C56.5276 21.4444 59.5893 22.414 61.6985 24.3531C63.8417 26.2581 64.9133 29.1498 64.9133 33.028V49H58.8919V45.6831C58.1095 46.8738 56.9869 47.7923 55.524 48.4387C54.0952 49.051 52.3602 49.3572 50.3191 49.3572C48.2779 49.3572 46.4919 49.017 44.9611 48.3366C43.4302 47.6222 42.2395 46.6527 41.3891 45.428C40.5726 44.1693 40.1644 42.7575 40.1644 41.1926C40.1644 38.7432 41.0659 36.7871 42.8689 35.3243C44.7059 33.8274 47.5806 33.079 51.4928 33.079H58.5347V32.6708C58.5347 30.7657 57.9564 29.3029 56.7998 28.2823C55.6771 27.2617 53.9932 26.7514 51.7479 26.7514C50.217 26.7514 48.7032 26.9896 47.2063 27.4658C45.7435 27.9421 44.5018 28.6055 43.4812 29.4559L40.9808 24.8123C42.4096 23.7237 44.1276 22.8902 46.1347 22.3119C48.1419 21.7336 50.2681 21.4444 52.5133 21.4444ZM51.6458 44.7136C53.2448 44.7136 54.6565 44.3564 55.8812 43.642C57.1399 42.8935 58.0244 41.8389 58.5347 40.4782V37.3144H51.952C48.2779 37.3144 46.4409 38.5221 46.4409 40.9374C46.4409 42.0941 46.9002 43.0126 47.8187 43.693C48.7372 44.3734 50.0129 44.7136 51.6458 44.7136Z" fill="black"/>
<path d="M112.966 21.7506V49H72.8065V21.7506H79.1851V43.5909H89.748V21.7506H96.1266V43.5909H106.588V21.7506H112.966Z" fill="black"/>
<path d="M155.394 34.814C158.762 35.8345 160.446 38.0118 160.446 41.3457C160.446 43.795 159.527 45.6831 157.69 47.0099C155.853 48.3366 153.132 49 149.525 49H135.646V21.7506H148.964C152.298 21.7506 154.901 22.3629 156.772 23.5876C158.643 24.8123 159.578 26.5473 159.578 28.7926C159.578 30.1874 159.204 31.395 158.456 32.4156C157.741 33.4362 156.721 34.2356 155.394 34.814ZM141.718 33.13H148.403C151.703 33.13 153.353 31.9904 153.353 29.7111C153.353 27.4998 151.703 26.3942 148.403 26.3942H141.718V33.13ZM149.015 44.3564C152.519 44.3564 154.271 43.2167 154.271 40.9374C154.271 39.7468 153.863 38.8623 153.046 38.2839C152.23 37.6716 150.954 37.3654 149.219 37.3654H141.718V44.3564H149.015Z" fill="black"/>
<path d="M192.754 35.5284C192.754 35.9706 192.72 36.6 192.652 37.4164H171.271C171.645 39.4236 172.615 41.0225 174.18 42.2132C175.778 43.3698 177.752 43.9481 180.099 43.9481C183.093 43.9481 185.559 42.9616 187.498 40.9885L190.917 44.9177C189.692 46.3805 188.144 47.4861 186.273 48.2346C184.402 48.983 182.293 49.3572 179.946 49.3572C176.952 49.3572 174.316 48.7618 172.036 47.5712C169.757 46.3805 167.988 44.7306 166.729 42.6214C165.505 40.4782 164.892 38.0628 164.892 35.3753C164.892 32.7218 165.488 30.3404 166.678 28.2313C167.903 26.088 169.587 24.4211 171.73 23.2304C173.873 22.0398 176.289 21.4444 178.976 21.4444C181.63 21.4444 183.994 22.0398 186.069 23.2304C188.178 24.3871 189.811 26.037 190.968 28.1802C192.159 30.2894 192.754 32.7388 192.754 35.5284ZM178.976 26.5473C176.935 26.5473 175.2 27.1597 173.771 28.3843C172.377 29.575 171.526 31.1739 171.22 33.181H186.682C186.409 31.2079 185.576 29.609 184.181 28.3843C182.786 27.1597 181.051 26.5473 178.976 26.5473Z" fill="black"/>
<path d="M214.478 23.0773C217.063 23.0773 219.343 23.6387 221.316 24.7613C223.289 25.8499 224.82 27.3808 225.908 29.3539C227.031 31.327 227.592 33.5893 227.592 36.1407C227.592 38.7602 226.98 41.0905 225.755 43.1317C224.531 45.1388 222.813 46.7037 220.601 47.8263C218.39 48.949 215.873 49.5103 213.049 49.5103C208.321 49.5103 204.663 47.9454 202.078 44.8156C199.493 41.6858 198.2 37.1783 198.2 31.293C198.2 25.8159 199.373 21.4784 201.721 18.2806C204.068 15.0828 207.657 12.9736 212.488 11.9531L225.143 9.24854L226.062 14.9638L214.58 17.3111C211.28 17.9915 208.814 19.1481 207.181 20.781C205.548 22.414 204.595 24.7103 204.323 27.6699C205.548 26.2071 207.028 25.0845 208.763 24.302C210.498 23.4856 212.403 23.0773 214.478 23.0773ZM213.202 44.3564C215.55 44.3564 217.438 43.6079 218.866 42.1111C220.329 40.5802 221.061 38.6411 221.061 36.2938C221.061 33.9465 220.329 32.0584 218.866 30.6296C217.438 29.2008 215.55 28.4864 213.202 28.4864C210.821 28.4864 208.899 29.2008 207.436 30.6296C205.973 32.0584 205.242 33.9465 205.242 36.2938C205.242 38.6751 205.973 40.6142 207.436 42.1111C208.933 43.6079 210.855 44.3564 213.202 44.3564Z" fill="black"/>
<path d="M260.269 49.3572C257.446 49.3572 254.911 48.7618 252.666 47.5712C250.421 46.3805 248.669 44.7306 247.41 42.6214C246.151 40.4782 245.522 38.0628 245.522 35.3753C245.522 32.6878 246.151 30.2894 247.41 28.1802C248.669 26.071 250.404 24.4211 252.615 23.2304C254.86 22.0398 257.412 21.4444 260.269 21.4444C262.957 21.4444 265.304 21.9887 267.311 23.0773C269.352 24.166 270.883 25.7308 271.904 27.772L267.005 30.6296C266.223 29.3709 265.236 28.4354 264.045 27.823C262.889 27.1767 261.613 26.8535 260.218 26.8535C257.837 26.8535 255.864 27.6359 254.299 29.2008C252.734 30.7317 251.951 32.7898 251.951 35.3753C251.951 37.9607 252.717 40.0359 254.248 41.6008C255.813 43.1317 257.803 43.8971 260.218 43.8971C261.613 43.8971 262.889 43.5909 264.045 42.9786C265.236 42.3322 266.223 41.3797 267.005 40.121L271.904 42.9786C270.849 45.0197 269.301 46.6016 267.26 47.7243C265.253 48.8129 262.923 49.3572 260.269 49.3572Z" fill="black"/>
<path d="M287.674 21.4444C291.689 21.4444 294.75 22.414 296.86 24.3531C299.003 26.2581 300.074 29.1498 300.074 33.028V49H294.053V45.6831C293.271 46.8738 292.148 47.7923 290.685 48.4387C289.256 49.051 287.521 49.3572 285.48 49.3572C283.439 49.3572 281.653 49.017 280.122 48.3366C278.591 47.6222 277.401 46.6527 276.55 45.428C275.734 44.1693 275.325 42.7575 275.325 41.1926C275.325 38.7432 276.227 36.7871 278.03 35.3243C279.867 33.8274 282.742 33.079 286.654 33.079H293.696V32.6708C293.696 30.7657 293.117 29.3029 291.961 28.2823C290.838 27.2617 289.154 26.7514 286.909 26.7514C285.378 26.7514 283.864 26.9896 282.367 27.4658C280.905 27.9421 279.663 28.6055 278.642 29.4559L276.142 24.8123C277.571 23.7237 279.289 22.8902 281.296 22.3119C283.303 21.7336 285.429 21.4444 287.674 21.4444ZM286.807 44.7136C288.406 44.7136 289.818 44.3564 291.042 43.642C292.301 42.8935 293.186 41.8389 293.696 40.4782V37.3144H287.113C283.439 37.3144 281.602 38.5221 281.602 40.9374C281.602 42.0941 282.061 43.0126 282.98 43.693C283.898 44.3734 285.174 44.7136 286.807 44.7136Z" fill="black"/>
<path d="M307.968 21.7506H314.346V39.7127L329.4 21.7506H335.217V49H328.838V31.0378L313.836 49H307.968V21.7506ZM321.184 18.5358C318.428 18.5358 316.319 17.9064 314.856 16.6477C313.428 15.355 312.696 13.4839 312.662 11.0345H316.898C316.932 12.2592 317.306 13.2288 318.02 13.9432C318.769 14.6576 319.806 15.0148 321.133 15.0148C322.426 15.0148 323.446 14.6576 324.195 13.9432C324.977 13.2288 325.385 12.2592 325.419 11.0345H329.757C329.723 13.4839 328.974 15.355 327.512 16.6477C326.049 17.9064 323.94 18.5358 321.184 18.5358Z" fill="black"/>
<path d="M365.383 27.1596H355.84V49H349.462V27.1596H339.868V21.7506H365.383V27.1596Z" fill="black"/>
<rect y="143.482" width="117.366" height="117.366" rx="25.5144" fill="#F1F1F1"/>
<rect x="168.396" y="143.481" width="637.86" height="117.366" rx="25.5144" fill="#F1F1F1"/>
<rect x="857.284" y="143.481" width="637.86" height="622.551" rx="25.5144" fill="#C6D4F9"/>
<rect y="311.877" width="117.366" height="117.366" rx="25.5144" fill="#F1F1F1"/>
<rect x="168.396" y="311.876" width="637.86" height="117.366" rx="25.5144" fill="#F1F1F1"/>
<rect y="480.272" width="117.366" height="117.366" rx="25.5144" fill="#F1F1F1"/>
<rect x="168.396" y="480.272" width="637.86" height="117.366" rx="25.5144" fill="#F1F1F1"/>
<rect y="648.667" width="117.366" height="117.366" rx="25.5144" fill="#F1F1F1"/>
<rect x="168.396" y="648.667" width="637.86" height="117.366" rx="25.5144" fill="#F1F1F1"/>
<path d="M688.371 238.775L689.357 202.322C689.419 200.019 692.167 198.864 693.856 200.432L721.57 226.167C723.407 227.873 722.102 230.942 719.599 230.803L704.171 229.945C703.37 229.901 702.591 230.218 702.049 230.81L693.022 240.657C691.348 242.483 688.304 241.252 688.371 238.775Z" fill="#0000FF" stroke="#0000FF" stroke-width="2.67778"/>
<rect x="706.922" y="271.381" width="99.0779" height="48.2001" rx="8.03335" fill="#0000FF"/>
<path d="M734.049 299.662H724.677L722.829 304H719.241L727.676 285.255H731.104L739.565 304H735.924L734.049 299.662ZM732.898 296.931L729.363 288.736L725.855 296.931H732.898Z" fill="white"/>
<path d="M742.065 289.7H745.412V295.511H752.615V289.7H755.963V304H752.615V298.35H745.412V304H742.065V289.7Z" fill="white"/>
<path d="M760.448 289.7H763.796V295.511H770.999V289.7H774.346V304H770.999V298.35H763.796V304H760.448V289.7Z" fill="white"/>
<path d="M784.161 289.54C786.267 289.54 787.874 290.049 788.981 291.066C790.106 292.066 790.668 293.583 790.668 295.618V304H787.508V302.259C787.098 302.884 786.508 303.366 785.741 303.705C784.991 304.027 784.081 304.187 783.009 304.187C781.938 304.187 781.001 304.009 780.198 303.652C779.394 303.277 778.77 302.768 778.323 302.125C777.895 301.465 777.681 300.724 777.681 299.903C777.681 298.618 778.154 297.591 779.1 296.823C780.064 296.038 781.572 295.645 783.625 295.645H787.321V295.431C787.321 294.431 787.017 293.664 786.41 293.128C785.821 292.592 784.937 292.325 783.759 292.325C782.956 292.325 782.161 292.45 781.376 292.7C780.608 292.95 779.957 293.298 779.421 293.744L778.109 291.307C778.859 290.736 779.76 290.299 780.814 289.995C781.867 289.692 782.983 289.54 784.161 289.54ZM783.706 301.751C784.545 301.751 785.286 301.563 785.928 301.188C786.589 300.795 787.053 300.242 787.321 299.528V297.868H783.866C781.938 297.868 780.974 298.501 780.974 299.769C780.974 300.376 781.215 300.858 781.697 301.215C782.179 301.572 782.849 301.751 783.706 301.751Z" fill="white"/>
<path d="M565.194 589.565L566.179 553.111C566.241 550.808 568.99 549.654 570.678 551.221L598.392 576.956C600.229 578.662 598.925 581.731 596.422 581.592L580.994 580.735C580.192 580.69 579.413 581.008 578.871 581.599L569.844 591.447C568.17 593.273 565.127 592.042 565.194 589.565Z" fill="#1ACF7D" stroke="#1ACF7D" stroke-width="2.67778"/>
<rect x="583.744" y="622.17" width="123.178" height="48.2001" rx="8.03335" fill="#1ACF7D"/>
<path d="M602.533 647.1H599.052V655H595.624V636.255H599.052V644.101H602.64L608.022 636.255H611.718L605.318 645.333L611.959 655H608.022L602.533 647.1Z" fill="white"/>
<path d="M627.273 640.7V655H623.926V643.539H618.571L618.437 646.377C618.347 648.27 618.169 649.859 617.901 651.144C617.651 652.411 617.214 653.42 616.589 654.17C615.982 654.902 615.143 655.268 614.072 655.268C613.572 655.268 612.956 655.169 612.224 654.973L612.385 652.161C612.635 652.215 612.849 652.242 613.028 652.242C613.706 652.242 614.215 651.974 614.554 651.438C614.893 650.885 615.107 650.233 615.197 649.484C615.304 648.716 615.393 647.627 615.464 646.217L615.705 640.7H627.273Z" fill="white"/>
<path d="M631.781 640.7H635.128V650.126L643.028 640.7H646.081V655H642.733V645.574L634.861 655H631.781V640.7Z" fill="white"/>
<path d="M663.972 647.931C663.972 648.163 663.954 648.493 663.919 648.921H652.699C652.895 649.975 653.404 650.814 654.225 651.438C655.064 652.045 656.099 652.349 657.331 652.349C658.902 652.349 660.196 651.831 661.214 650.796L663.008 652.858C662.365 653.625 661.553 654.205 660.571 654.598C659.59 654.991 658.483 655.187 657.251 655.187C655.68 655.187 654.296 654.875 653.1 654.25C651.904 653.625 650.976 652.759 650.315 651.653C649.673 650.528 649.351 649.26 649.351 647.85C649.351 646.458 649.664 645.208 650.289 644.101C650.931 642.977 651.815 642.102 652.94 641.477C654.064 640.852 655.332 640.54 656.742 640.54C658.135 640.54 659.375 640.852 660.464 641.477C661.571 642.084 662.428 642.95 663.035 644.074C663.66 645.181 663.972 646.467 663.972 647.931ZM656.742 643.218C655.671 643.218 654.761 643.539 654.011 644.182C653.279 644.806 652.833 645.645 652.672 646.699H660.786C660.643 645.663 660.205 644.824 659.473 644.182C658.742 643.539 657.831 643.218 656.742 643.218Z" fill="white"/>
<path d="M667.633 640.7H670.98V646.511H678.184V640.7H681.531V655H678.184V649.35H670.98V655H667.633V640.7Z" fill="white"/>
<path d="M697.344 643.539H692.336V655H688.989V643.539H683.955V640.7H697.344V643.539Z" fill="white"/>
</g>
<defs>
<clipPath id="clip0">
<rect width="1495" height="766" fill="white"/>
</clipPath>
</defs>
</svg>
