<svg width="580" height="542" viewBox="0 0 580 542" fill="none" xmlns="http://www.w3.org/2000/svg">
<rect x="0.5" y="0.5" width="578.177" height="540.15" rx="8.27541" fill="white" stroke="#DADADA"/>
<path d="M155.454 140.266H145.216L143.198 145.005H139.278L148.492 124.529H152.236L161.48 145.005H157.502L155.454 140.266ZM154.196 137.283L150.335 128.332L146.503 137.283H154.196ZM164.503 129.385H168.159V135.732H176.028V129.385H179.684V145.005H176.028V138.833H168.159V145.005H164.503V129.385ZM184.877 129.385H188.533V135.732H196.402V129.385H200.058V145.005H196.402V138.833H188.533V145.005H184.877V129.385ZM211.072 129.209C213.373 129.209 215.128 129.765 216.337 130.876C217.566 131.969 218.18 133.626 218.18 135.849V145.005H214.729V143.104C214.28 143.786 213.637 144.313 212.798 144.683C211.979 145.034 210.984 145.21 209.814 145.21C208.644 145.21 207.621 145.015 206.743 144.625C205.865 144.215 205.183 143.659 204.695 142.957C204.227 142.236 203.993 141.426 203.993 140.529C203.993 139.125 204.51 138.004 205.544 137.166C206.597 136.307 208.245 135.878 210.487 135.878H214.524V135.644C214.524 134.552 214.192 133.714 213.529 133.129C212.886 132.544 211.92 132.251 210.633 132.251C209.756 132.251 208.888 132.388 208.03 132.661C207.192 132.934 206.48 133.314 205.895 133.802L204.461 131.14C205.28 130.516 206.265 130.038 207.416 129.706C208.566 129.375 209.785 129.209 211.072 129.209ZM210.575 142.548C211.491 142.548 212.301 142.343 213.003 141.933C213.724 141.504 214.231 140.9 214.524 140.12V138.306H210.75C208.644 138.306 207.591 138.999 207.591 140.383C207.591 141.046 207.855 141.573 208.381 141.963C208.908 142.353 209.639 142.548 210.575 142.548ZM239.804 136.932C240.837 137.205 241.637 137.643 242.203 138.248C242.768 138.852 243.051 139.603 243.051 140.5C243.051 141.417 242.739 142.236 242.115 142.957C241.491 143.659 240.623 144.215 239.511 144.625C238.419 145.015 237.191 145.21 235.826 145.21C234.675 145.21 233.544 145.063 232.433 144.771C231.341 144.459 230.365 144.02 229.507 143.455L230.356 141.319C231.097 141.787 231.945 142.158 232.901 142.431C233.856 142.684 234.821 142.811 235.796 142.811C237.123 142.811 238.176 142.587 238.956 142.138C239.755 141.67 240.155 141.046 240.155 140.266C240.155 139.545 239.833 138.989 239.19 138.599C238.566 138.209 237.678 138.014 236.528 138.014H233.69V135.995H236.323C237.376 135.995 238.205 135.81 238.809 135.44C239.414 135.069 239.716 134.562 239.716 133.919C239.716 133.217 239.355 132.671 238.634 132.281C237.932 131.891 236.976 131.696 235.767 131.696C234.227 131.696 232.598 132.095 230.882 132.895L230.122 130.73C232.013 129.775 233.993 129.297 236.06 129.297C237.308 129.297 238.429 129.472 239.424 129.823C240.418 130.174 241.198 130.672 241.764 131.315C242.329 131.959 242.612 132.69 242.612 133.509C242.612 134.27 242.359 134.952 241.851 135.557C241.344 136.161 240.662 136.619 239.804 136.932ZM253.141 129.355C255.286 129.355 256.924 129.882 258.055 130.935C259.206 131.988 259.781 133.558 259.781 135.644V145.005H257.119V142.957C256.651 143.679 255.978 144.235 255.101 144.625C254.243 144.995 253.219 145.18 252.029 145.18C250.294 145.18 248.899 144.761 247.846 143.923C246.813 143.084 246.296 141.982 246.296 140.617C246.296 139.252 246.793 138.16 247.788 137.341C248.782 136.502 250.362 136.083 252.527 136.083H256.973V135.527C256.973 134.318 256.622 133.392 255.92 132.749C255.218 132.105 254.184 131.783 252.819 131.783C251.903 131.783 251.006 131.939 250.128 132.251C249.25 132.544 248.509 132.944 247.905 133.451L246.735 131.344C247.534 130.701 248.49 130.213 249.601 129.882C250.713 129.531 251.893 129.355 253.141 129.355ZM252.497 143.016C253.57 143.016 254.496 142.782 255.276 142.314C256.056 141.826 256.622 141.144 256.973 140.266V138.102H252.644C250.265 138.102 249.075 138.901 249.075 140.5C249.075 141.28 249.377 141.894 249.982 142.343C250.586 142.792 251.425 143.016 252.497 143.016ZM279.493 129.502V145.005H276.684V131.959H267.938V145.005H265.13V129.502H279.493ZM293.438 129.355C294.94 129.355 296.285 129.687 297.475 130.35C298.665 131.013 299.591 131.939 300.254 133.129C300.936 134.318 301.278 135.693 301.278 137.253C301.278 138.813 300.936 140.198 300.254 141.407C299.591 142.597 298.665 143.523 297.475 144.186C296.285 144.849 294.94 145.18 293.438 145.18C292.327 145.18 291.303 144.966 290.367 144.537C289.45 144.108 288.67 143.484 288.027 142.665V150.68H285.219V129.502H287.91V131.959C288.534 131.101 289.324 130.457 290.279 130.028C291.235 129.58 292.288 129.355 293.438 129.355ZM293.204 142.723C294.199 142.723 295.086 142.499 295.866 142.05C296.666 141.582 297.29 140.939 297.738 140.12C298.206 139.281 298.44 138.326 298.44 137.253C298.44 136.181 298.206 135.235 297.738 134.416C297.29 133.577 296.666 132.934 295.866 132.485C295.086 132.037 294.199 131.813 293.204 131.813C292.229 131.813 291.342 132.047 290.542 132.515C289.762 132.963 289.138 133.597 288.67 134.416C288.222 135.235 287.998 136.181 287.998 137.253C287.998 138.326 288.222 139.281 288.67 140.12C289.119 140.939 289.743 141.582 290.542 142.05C291.342 142.499 292.229 142.723 293.204 142.723ZM311.036 129.355C313.181 129.355 314.819 129.882 315.95 130.935C317.101 131.988 317.676 133.558 317.676 135.644V145.005H315.014V142.957C314.546 143.679 313.873 144.235 312.996 144.625C312.138 144.995 311.114 145.18 309.924 145.18C308.189 145.18 306.794 144.761 305.741 143.923C304.708 143.084 304.191 141.982 304.191 140.617C304.191 139.252 304.688 138.16 305.683 137.341C306.677 136.502 308.257 136.083 310.421 136.083H314.868V135.527C314.868 134.318 314.517 133.392 313.815 132.749C313.113 132.105 312.079 131.783 310.714 131.783C309.797 131.783 308.9 131.939 308.023 132.251C307.145 132.544 306.404 132.944 305.8 133.451L304.63 131.344C305.429 130.701 306.385 130.213 307.496 129.882C308.608 129.531 309.788 129.355 311.036 129.355ZM310.392 143.016C311.465 143.016 312.391 142.782 313.171 142.314C313.951 141.826 314.517 141.144 314.868 140.266V138.102H310.538C308.159 138.102 306.97 138.901 306.97 140.5C306.97 141.28 307.272 141.894 307.877 142.343C308.481 142.792 309.32 143.016 310.392 143.016ZM345.11 129.502V145.005H323.025V129.502H325.833V142.548H332.678V129.502H335.486V142.548H342.302V129.502H345.11ZM350.855 129.502H353.663V140.793L363.17 129.502H365.715V145.005H362.906V133.714L353.429 145.005H350.855V129.502ZM382.017 136.961C384.026 137.468 385.03 138.726 385.03 140.734C385.03 142.099 384.514 143.152 383.48 143.893C382.466 144.634 380.945 145.005 378.917 145.005H371.458V129.502H378.653C380.487 129.502 381.92 129.853 382.953 130.555C383.987 131.237 384.504 132.212 384.504 133.48C384.504 134.299 384.279 135.011 383.831 135.615C383.402 136.2 382.797 136.649 382.017 136.961ZM374.207 136.171H378.419C379.492 136.171 380.301 135.976 380.847 135.586C381.413 135.196 381.696 134.63 381.696 133.889C381.696 132.407 380.604 131.666 378.419 131.666H374.207V136.171ZM378.712 142.84C379.882 142.84 380.76 142.655 381.345 142.285C381.93 141.914 382.222 141.339 382.222 140.559C382.222 139.759 381.949 139.164 381.403 138.774C380.877 138.384 380.038 138.189 378.887 138.189H374.207V142.84H378.712ZM395.247 129.355C397.392 129.355 399.03 129.882 400.161 130.935C401.311 131.988 401.887 133.558 401.887 135.644V145.005H399.225V142.957C398.757 143.679 398.084 144.235 397.206 144.625C396.348 144.995 395.325 145.18 394.135 145.18C392.399 145.18 391.005 144.761 389.952 143.923C388.919 143.084 388.402 141.982 388.402 140.617C388.402 139.252 388.899 138.16 389.894 137.341C390.888 136.502 392.468 136.083 394.632 136.083H399.078V135.527C399.078 134.318 398.727 133.392 398.025 132.749C397.323 132.105 396.29 131.783 394.925 131.783C394.008 131.783 393.111 131.939 392.234 132.251C391.356 132.544 390.615 132.944 390.011 133.451L388.841 131.344C389.64 130.701 390.596 130.213 391.707 129.882C392.819 129.531 393.999 129.355 395.247 129.355ZM394.603 143.016C395.676 143.016 396.602 142.782 397.382 142.314C398.162 141.826 398.727 141.144 399.078 140.266V138.102H394.749C392.37 138.102 391.181 138.901 391.181 140.5C391.181 141.28 391.483 141.894 392.087 142.343C392.692 142.792 393.53 143.016 394.603 143.016ZM421.247 137.341C421.247 137.556 421.228 137.838 421.189 138.189H408.611C408.786 139.554 409.381 140.656 410.395 141.495C411.428 142.314 412.706 142.723 414.227 142.723C416.079 142.723 417.571 142.099 418.702 140.851L420.253 142.665C419.551 143.484 418.673 144.108 417.62 144.537C416.586 144.966 415.426 145.18 414.139 145.18C412.501 145.18 411.048 144.849 409.781 144.186C408.513 143.503 407.528 142.558 406.826 141.348C406.144 140.139 405.802 138.774 405.802 137.253C405.802 135.752 406.134 134.396 406.797 133.187C407.479 131.978 408.406 131.042 409.576 130.379C410.765 129.697 412.101 129.355 413.583 129.355C415.065 129.355 416.382 129.697 417.532 130.379C418.702 131.042 419.609 131.978 420.253 133.187C420.916 134.396 421.247 135.781 421.247 137.341ZM413.583 131.725C412.238 131.725 411.107 132.134 410.19 132.953C409.293 133.772 408.767 134.845 408.611 136.171H418.556C418.4 134.864 417.864 133.802 416.947 132.983C416.05 132.144 414.929 131.725 413.583 131.725ZM436.793 131.959H431.119V145.005H428.31V131.959H422.636V129.502H436.793V131.959ZM77.4987 165.355C79.0003 165.355 80.3459 165.687 81.5354 166.35C82.725 167.013 83.6513 167.939 84.3143 169.129C84.9968 170.318 85.3381 171.693 85.3381 173.253C85.3381 174.813 84.9968 176.198 84.3143 177.407C83.6513 178.597 82.725 179.523 81.5354 180.186C80.3459 180.849 79.0003 181.18 77.4987 181.18C76.3872 181.18 75.3634 180.966 74.4273 180.537C73.5108 180.108 72.7308 179.484 72.0872 178.665V186.68H69.2791V165.502H71.9702V167.959C72.5942 167.101 73.384 166.457 74.3396 166.028C75.2951 165.58 76.3482 165.355 77.4987 165.355ZM77.2647 178.723C78.2593 178.723 79.1466 178.499 79.9266 178.05C80.7261 177.582 81.3502 176.939 81.7987 176.12C82.2667 175.281 82.5007 174.326 82.5007 173.253C82.5007 172.181 82.2667 171.235 81.7987 170.416C81.3502 169.577 80.7261 168.934 79.9266 168.485C79.1466 168.037 78.2593 167.813 77.2647 167.813C76.2897 167.813 75.4024 168.047 74.6028 168.515C73.8228 168.963 73.1988 169.597 72.7308 170.416C72.2822 171.235 72.058 172.181 72.058 173.253C72.058 174.326 72.2822 175.281 72.7308 176.12C73.1793 176.939 73.8033 177.582 74.6028 178.05C75.4024 178.499 76.2897 178.723 77.2647 178.723ZM95.0962 165.355C97.2413 165.355 98.8793 165.882 100.01 166.935C101.161 167.988 101.736 169.558 101.736 171.644V181.005H99.0743V178.957C98.6063 179.679 97.9335 180.235 97.056 180.625C96.198 180.995 95.1742 181.18 93.9846 181.18C92.249 181.18 90.8547 180.761 89.8017 179.923C88.7681 179.084 88.2513 177.982 88.2513 176.617C88.2513 175.252 88.7486 174.16 89.7432 173.341C90.7377 172.502 92.3173 172.083 94.4819 172.083H98.9281V171.527C98.9281 170.318 98.5771 169.392 97.875 168.749C97.173 168.105 96.1395 167.783 94.7744 167.783C93.8579 167.783 92.9608 167.939 92.0833 168.251C91.2057 168.544 90.4647 168.944 89.8602 169.451L88.6901 167.344C89.4896 166.701 90.4452 166.213 91.5567 165.882C92.6683 165.531 93.8481 165.355 95.0962 165.355ZM94.4526 179.016C95.5252 179.016 96.4515 178.782 97.2315 178.314C98.0115 177.826 98.5771 177.144 98.9281 176.266V174.102H94.5989C92.2198 174.102 91.0302 174.901 91.0302 176.5C91.0302 177.28 91.3325 177.894 91.937 178.343C92.5415 178.792 93.3801 179.016 94.4526 179.016ZM115.223 172.932C116.257 173.205 117.056 173.643 117.622 174.248C118.188 174.852 118.47 175.603 118.47 176.5C118.47 177.417 118.158 178.236 117.534 178.957C116.91 179.659 116.042 180.215 114.931 180.625C113.839 181.015 112.61 181.21 111.245 181.21C110.095 181.21 108.964 181.063 107.852 180.771C106.76 180.459 105.785 180.02 104.927 179.455L105.775 177.319C106.516 177.787 107.365 178.158 108.32 178.431C109.276 178.684 110.241 178.811 111.216 178.811C112.542 178.811 113.595 178.587 114.375 178.138C115.175 177.67 115.574 177.046 115.574 176.266C115.574 175.545 115.253 174.989 114.609 174.599C113.985 174.209 113.098 174.014 111.947 174.014H109.11V171.995H111.742C112.796 171.995 113.624 171.81 114.229 171.44C114.833 171.069 115.136 170.562 115.136 169.919C115.136 169.217 114.775 168.671 114.053 168.281C113.351 167.891 112.396 167.696 111.187 167.696C109.646 167.696 108.018 168.095 106.302 168.895L105.541 166.73C107.433 165.775 109.412 165.297 111.479 165.297C112.727 165.297 113.849 165.472 114.843 165.823C115.838 166.174 116.618 166.672 117.183 167.315C117.749 167.959 118.032 168.69 118.032 169.509C118.032 170.27 117.778 170.952 117.271 171.557C116.764 172.161 116.081 172.619 115.223 172.932ZM131.252 165.355C132.753 165.355 134.099 165.687 135.288 166.35C136.478 167.013 137.404 167.939 138.067 169.129C138.75 170.318 139.091 171.693 139.091 173.253C139.091 174.813 138.75 176.198 138.067 177.407C137.404 178.597 136.478 179.523 135.288 180.186C134.099 180.849 132.753 181.18 131.252 181.18C130.14 181.18 129.116 180.966 128.18 180.537C127.264 180.108 126.484 179.484 125.84 178.665V186.68H123.032V165.502H125.723V167.959C126.347 167.101 127.137 166.457 128.092 166.028C129.048 165.58 130.101 165.355 131.252 165.355ZM131.018 178.723C132.012 178.723 132.899 178.499 133.679 178.05C134.479 177.582 135.103 176.939 135.551 176.12C136.02 175.281 136.254 174.326 136.254 173.253C136.254 172.181 136.02 171.235 135.551 170.416C135.103 169.577 134.479 168.934 133.679 168.485C132.899 168.037 132.012 167.813 131.018 167.813C130.042 167.813 129.155 168.047 128.356 168.515C127.576 168.963 126.952 169.597 126.484 170.416C126.035 171.235 125.811 172.181 125.811 173.253C125.811 174.326 126.035 175.281 126.484 176.12C126.932 176.939 127.556 177.582 128.356 178.05C129.155 178.499 130.042 178.723 131.018 178.723ZM157.475 173.341C157.475 173.556 157.455 173.838 157.416 174.189H144.838C145.014 175.554 145.608 176.656 146.622 177.495C147.656 178.314 148.933 178.723 150.454 178.723C152.307 178.723 153.799 178.099 154.93 176.851L156.48 178.665C155.778 179.484 154.901 180.108 153.848 180.537C152.814 180.966 151.654 181.18 150.367 181.18C148.729 181.18 147.276 180.849 146.008 180.186C144.741 179.503 143.756 178.558 143.054 177.348C142.371 176.139 142.03 174.774 142.03 173.253C142.03 171.752 142.361 170.396 143.025 169.187C143.707 167.978 144.633 167.042 145.803 166.379C146.993 165.697 148.329 165.355 149.811 165.355C151.293 165.355 152.609 165.697 153.76 166.379C154.93 167.042 155.837 167.978 156.48 169.187C157.143 170.396 157.475 171.781 157.475 173.341ZM149.811 167.725C148.465 167.725 147.334 168.134 146.418 168.953C145.521 169.772 144.994 170.845 144.838 172.171H154.784C154.628 170.864 154.091 169.802 153.175 168.983C152.278 168.144 151.156 167.725 149.811 167.725ZM184.208 165.502V181.005H162.124V165.502H164.932V178.548H171.777V165.502H174.585V178.548H181.4V165.502H184.208ZM203.965 173.341C203.965 173.556 203.945 173.838 203.906 174.189H191.328C191.504 175.554 192.099 176.656 193.113 177.495C194.146 178.314 195.424 178.723 196.945 178.723C198.797 178.723 200.289 178.099 201.42 176.851L202.97 178.665C202.268 179.484 201.391 180.108 200.338 180.537C199.304 180.966 198.144 181.18 196.857 181.18C195.219 181.18 193.766 180.849 192.498 180.186C191.231 179.503 190.246 178.558 189.544 177.348C188.861 176.139 188.52 174.774 188.52 173.253C188.52 171.752 188.852 170.396 189.515 169.187C190.197 167.978 191.124 167.042 192.294 166.379C193.483 165.697 194.819 165.355 196.301 165.355C197.783 165.355 199.099 165.697 200.25 166.379C201.42 167.042 202.327 167.978 202.97 169.187C203.633 170.396 203.965 171.781 203.965 173.341ZM196.301 167.725C194.956 167.725 193.824 168.134 192.908 168.953C192.011 169.772 191.484 170.845 191.328 172.171H201.274C201.118 170.864 200.582 169.802 199.665 168.983C198.768 168.144 197.647 167.725 196.301 167.725ZM208.614 165.502H211.422V172.083H220.256V165.502H223.064V181.005H220.256V174.511H211.422V181.005H208.614V165.502ZM228.817 165.502H231.625V176.793L241.132 165.502H243.676V181.005H240.868V169.714L231.391 181.005H228.817V165.502ZM263.431 173.341C263.431 173.556 263.411 173.838 263.372 174.189H250.794C250.97 175.554 251.565 176.656 252.579 177.495C253.612 178.314 254.889 178.723 256.411 178.723C258.263 178.723 259.755 178.099 260.886 176.851L262.436 178.665C261.734 179.484 260.857 180.108 259.804 180.537C258.77 180.966 257.61 181.18 256.323 181.18C254.685 181.18 253.232 180.849 251.964 180.186C250.697 179.503 249.712 178.558 249.01 177.348C248.327 176.139 247.986 174.774 247.986 173.253C247.986 171.752 248.318 170.396 248.981 169.187C249.663 167.978 250.59 167.042 251.76 166.379C252.949 165.697 254.285 165.355 255.767 165.355C257.249 165.355 258.565 165.697 259.716 166.379C260.886 167.042 261.793 167.978 262.436 169.187C263.099 170.396 263.431 171.781 263.431 173.341ZM255.767 167.725C254.421 167.725 253.29 168.134 252.374 168.953C251.477 169.772 250.95 170.845 250.794 172.171H260.74C260.584 170.864 260.047 169.802 259.131 168.983C258.234 168.144 257.113 167.725 255.767 167.725ZM276.228 165.502H279.036V172.083H287.87V165.502H290.678V181.005H287.87V174.511H279.036V181.005H276.228V165.502ZM301.959 165.355C304.104 165.355 305.742 165.882 306.874 166.935C308.024 167.988 308.599 169.558 308.599 171.644V181.005H305.937V178.957C305.469 179.679 304.797 180.235 303.919 180.625C303.061 180.995 302.037 181.18 300.848 181.18C299.112 181.18 297.718 180.761 296.665 179.923C295.631 179.084 295.114 177.982 295.114 176.617C295.114 175.252 295.612 174.16 296.606 173.341C297.601 172.502 299.18 172.083 301.345 172.083H305.791V171.527C305.791 170.318 305.44 169.392 304.738 168.749C304.036 168.105 303.003 167.783 301.638 167.783C300.721 167.783 299.824 167.939 298.946 168.251C298.069 168.544 297.328 168.944 296.723 169.451L295.553 167.344C296.353 166.701 297.308 166.213 298.42 165.882C299.531 165.531 300.711 165.355 301.959 165.355ZM301.316 179.016C302.388 179.016 303.315 178.782 304.095 178.314C304.875 177.826 305.44 177.144 305.791 176.266V174.102H301.462C299.083 174.102 297.893 174.901 297.893 176.5C297.893 177.28 298.196 177.894 298.8 178.343C299.405 178.792 300.243 179.016 301.316 179.016ZM335.932 165.502L328.415 182.555C327.752 184.135 326.972 185.246 326.075 185.89C325.197 186.533 324.134 186.855 322.886 186.855C322.126 186.855 321.385 186.728 320.663 186.475C319.961 186.241 319.376 185.89 318.908 185.422L320.107 183.316C320.907 184.076 321.833 184.457 322.886 184.457C323.569 184.457 324.134 184.271 324.583 183.901C325.051 183.55 325.47 182.935 325.841 182.058L326.338 180.976L319.493 165.502H322.418L327.83 177.904L333.183 165.502H335.932ZM353.462 165.502V181.005H350.654V167.959H341.908V181.005H339.1V165.502H353.462ZM367.408 165.355C368.91 165.355 370.255 165.687 371.445 166.35C372.635 167.013 373.561 167.939 374.224 169.129C374.906 170.318 375.248 171.693 375.248 173.253C375.248 174.813 374.906 176.198 374.224 177.407C373.561 178.597 372.635 179.523 371.445 180.186C370.255 180.849 368.91 181.18 367.408 181.18C366.297 181.18 365.273 180.966 364.337 180.537C363.42 180.108 362.64 179.484 361.997 178.665V186.68H359.189V165.502H361.88V167.959C362.504 167.101 363.294 166.457 364.249 166.028C365.205 165.58 366.258 165.355 367.408 165.355ZM367.174 178.723C368.169 178.723 369.056 178.499 369.836 178.05C370.636 177.582 371.26 176.939 371.708 176.12C372.176 175.281 372.41 174.326 372.41 173.253C372.41 172.181 372.176 171.235 371.708 170.416C371.26 169.577 370.636 168.934 369.836 168.485C369.056 168.037 368.169 167.813 367.174 167.813C366.199 167.813 365.312 168.047 364.512 168.515C363.732 168.963 363.108 169.597 362.64 170.416C362.192 171.235 361.968 172.181 361.968 173.253C361.968 174.326 362.192 175.281 362.64 176.12C363.089 176.939 363.713 177.582 364.512 178.05C365.312 178.499 366.199 178.723 367.174 178.723ZM385.006 165.355C387.151 165.355 388.789 165.882 389.92 166.935C391.071 167.988 391.646 169.558 391.646 171.644V181.005H388.984V178.957C388.516 179.679 387.843 180.235 386.966 180.625C386.108 180.995 385.084 181.18 383.894 181.18C382.159 181.18 380.764 180.761 379.711 179.923C378.678 179.084 378.161 177.982 378.161 176.617C378.161 175.252 378.658 174.16 379.653 173.341C380.647 172.502 382.227 172.083 384.391 172.083H388.838V171.527C388.838 170.318 388.487 169.392 387.785 168.749C387.083 168.105 386.049 167.783 384.684 167.783C383.767 167.783 382.87 167.939 381.993 168.251C381.115 168.544 380.374 168.944 379.77 169.451L378.6 167.344C379.399 166.701 380.355 166.213 381.466 165.882C382.578 165.531 383.758 165.355 385.006 165.355ZM384.362 179.016C385.435 179.016 386.361 178.782 387.141 178.314C387.921 177.826 388.487 177.144 388.838 176.266V174.102H384.508C382.129 174.102 380.94 174.901 380.94 176.5C380.94 177.28 381.242 177.894 381.847 178.343C382.451 178.792 383.29 179.016 384.362 179.016ZM407.555 172.961C409.563 173.468 410.568 174.726 410.568 176.734C410.568 178.099 410.051 179.152 409.017 179.893C408.003 180.634 406.482 181.005 404.454 181.005H396.995V165.502H404.191C406.024 165.502 407.457 165.853 408.491 166.555C409.524 167.237 410.041 168.212 410.041 169.48C410.041 170.299 409.817 171.011 409.368 171.615C408.939 172.2 408.335 172.649 407.555 172.961ZM399.745 172.171H403.957C405.029 172.171 405.839 171.976 406.385 171.586C406.95 171.196 407.233 170.63 407.233 169.889C407.233 168.407 406.141 167.666 403.957 167.666H399.745V172.171ZM404.249 178.84C405.419 178.84 406.297 178.655 406.882 178.285C407.467 177.914 407.759 177.339 407.759 176.559C407.759 175.759 407.486 175.164 406.94 174.774C406.414 174.384 405.575 174.189 404.425 174.189H399.745V178.84H404.249ZM428.565 165.502V181.005H425.757V167.959H419.087L418.912 171.41C418.814 173.497 418.629 175.242 418.356 176.646C418.083 178.031 417.634 179.143 417.01 179.981C416.386 180.82 415.519 181.239 414.407 181.239C413.9 181.239 413.325 181.151 412.681 180.976L412.857 178.606C413.11 178.665 413.344 178.694 413.559 178.694C414.339 178.694 414.924 178.353 415.314 177.67C415.704 176.988 415.957 176.178 416.074 175.242C416.191 174.306 416.299 172.971 416.396 171.235L416.659 165.502H428.565ZM448.298 173.341C448.298 173.556 448.279 173.838 448.24 174.189H435.662C435.837 175.554 436.432 176.656 437.446 177.495C438.48 178.314 439.757 178.723 441.278 178.723C443.131 178.723 444.622 178.099 445.754 176.851L447.304 178.665C446.602 179.484 445.724 180.108 444.671 180.537C443.638 180.966 442.477 181.18 441.19 181.18C439.552 181.18 438.099 180.849 436.832 180.186C435.564 179.503 434.579 178.558 433.877 177.348C433.195 176.139 432.854 174.774 432.854 173.253C432.854 171.752 433.185 170.396 433.848 169.187C434.531 167.978 435.457 167.042 436.627 166.379C437.817 165.697 439.152 165.355 440.635 165.355C442.117 165.355 443.433 165.697 444.583 166.379C445.753 167.042 446.66 167.978 447.304 169.187C447.967 170.396 448.298 171.781 448.298 173.341ZM440.635 167.725C439.289 167.725 438.158 168.134 437.241 168.953C436.344 169.772 435.818 170.845 435.662 172.171H445.607C445.451 170.864 444.915 169.802 443.998 168.983C443.101 168.144 441.98 167.725 440.635 167.725ZM452.947 165.502H455.755V172.083H464.589V165.502H467.397V181.005H464.589V174.511H455.755V181.005H452.947V165.502ZM473.15 165.502H475.958V176.793L485.465 165.502H488.01V181.005H485.202V169.714L475.724 181.005H473.15V165.502ZM507.764 173.341C507.764 173.556 507.745 173.838 507.706 174.189H495.128C495.303 175.554 495.898 176.656 496.912 177.495C497.946 178.314 499.223 178.723 500.744 178.723C502.597 178.723 504.088 178.099 505.219 176.851L506.77 178.665C506.068 179.484 505.19 180.108 504.137 180.537C503.104 180.966 501.943 181.18 500.656 181.18C499.018 181.18 497.565 180.849 496.298 180.186C495.03 179.503 494.045 178.558 493.343 177.348C492.661 176.139 492.32 174.774 492.32 173.253C492.32 171.752 492.651 170.396 493.314 169.187C493.997 167.978 494.923 167.042 496.093 166.379C497.283 165.697 498.618 165.355 500.1 165.355C501.583 165.355 502.899 165.697 504.049 166.379C505.219 167.042 506.126 167.978 506.77 169.187C507.433 170.396 507.764 171.781 507.764 173.341ZM500.1 167.725C498.755 167.725 497.624 168.134 496.707 168.953C495.81 169.772 495.284 170.845 495.128 172.171H505.073C504.917 170.864 504.381 169.802 503.464 168.983C502.567 168.144 501.446 167.725 500.1 167.725ZM192.839 201.502V217.005H190.031V203.959H181.285V217.005H178.477V201.502H192.839ZM206.785 201.355C208.287 201.355 209.632 201.687 210.822 202.35C212.011 203.013 212.938 203.939 213.601 205.129C214.283 206.318 214.625 207.693 214.625 209.253C214.625 210.813 214.283 212.198 213.601 213.407C212.938 214.597 212.011 215.523 210.822 216.186C209.632 216.849 208.287 217.18 206.785 217.18C205.674 217.18 204.65 216.966 203.714 216.537C202.797 216.108 202.017 215.484 201.374 214.665V222.68H198.566V201.502H201.257V203.959C201.881 203.101 202.67 202.457 203.626 202.028C204.582 201.58 205.635 201.355 206.785 201.355ZM206.551 214.723C207.546 214.723 208.433 214.499 209.213 214.05C210.013 213.582 210.637 212.939 211.085 212.12C211.553 211.281 211.787 210.326 211.787 209.253C211.787 208.181 211.553 207.235 211.085 206.416C210.637 205.577 210.013 204.934 209.213 204.485C208.433 204.037 207.546 203.813 206.551 203.813C205.576 203.813 204.689 204.047 203.889 204.515C203.109 204.963 202.485 205.597 202.017 206.416C201.569 207.235 201.344 208.181 201.344 209.253C201.344 210.326 201.569 211.281 202.017 212.12C202.466 212.939 203.09 213.582 203.889 214.05C204.689 214.499 205.576 214.723 206.551 214.723ZM218.997 201.502H221.805V212.793L231.312 201.502H233.857V217.005H231.048V205.714L221.571 217.005H218.997V201.502ZM252.909 201.502V217.005H250.101V203.959H243.432L243.256 207.41C243.159 209.497 242.973 211.242 242.7 212.646C242.427 214.031 241.979 215.143 241.355 215.981C240.731 216.82 239.863 217.239 238.751 217.239C238.244 217.239 237.669 217.151 237.026 216.976L237.201 214.606C237.455 214.665 237.689 214.694 237.903 214.694C238.683 214.694 239.268 214.353 239.658 213.67C240.048 212.988 240.302 212.178 240.419 211.242C240.536 210.306 240.643 208.971 240.741 207.235L241.004 201.502H252.909ZM265.271 217.18C263.731 217.18 262.346 216.839 261.118 216.157C259.889 215.474 258.924 214.538 258.222 213.348C257.539 212.139 257.198 210.774 257.198 209.253C257.198 207.732 257.539 206.377 258.222 205.187C258.924 203.978 259.889 203.042 261.118 202.379C262.346 201.697 263.731 201.355 265.271 201.355C266.812 201.355 268.187 201.697 269.396 202.379C270.624 203.042 271.58 203.978 272.263 205.187C272.965 206.377 273.316 207.732 273.316 209.253C273.316 210.774 272.965 212.139 272.263 213.348C271.58 214.538 270.624 215.474 269.396 216.157C268.187 216.839 266.812 217.18 265.271 217.18ZM265.271 214.723C266.266 214.723 267.153 214.499 267.933 214.05C268.733 213.582 269.357 212.939 269.805 212.12C270.254 211.281 270.478 210.326 270.478 209.253C270.478 208.181 270.254 207.235 269.805 206.416C269.357 205.577 268.733 204.934 267.933 204.485C267.153 204.037 266.266 203.813 265.271 203.813C264.277 203.813 263.38 204.037 262.58 204.485C261.8 204.934 261.176 205.577 260.708 206.416C260.26 207.235 260.035 208.181 260.035 209.253C260.035 210.326 260.26 211.281 260.708 212.12C261.176 212.939 261.8 213.582 262.58 214.05C263.38 214.499 264.277 214.723 265.271 214.723ZM291.248 210.453H288.235V217.005H285.427V210.453H282.414L278.143 217.005H274.809L280.133 208.99L275.218 201.502H278.202L282.385 208.054H285.427V201.502H288.235V208.054H291.277L295.46 201.502H298.473L293.559 209.019L298.883 217.005H295.548L291.248 210.453ZM315.762 209.341C315.762 209.556 315.743 209.838 315.704 210.189H303.126C303.301 211.554 303.896 212.656 304.91 213.495C305.944 214.314 307.221 214.723 308.742 214.723C310.595 214.723 312.086 214.099 313.217 212.851L314.768 214.665C314.066 215.484 313.188 216.108 312.135 216.537C311.102 216.966 309.941 217.18 308.654 217.18C307.016 217.18 305.563 216.849 304.296 216.186C303.028 215.503 302.043 214.558 301.341 213.348C300.659 212.139 300.318 210.774 300.318 209.253C300.318 207.752 300.649 206.396 301.312 205.187C301.995 203.978 302.921 203.042 304.091 202.379C305.281 201.697 306.616 201.355 308.098 201.355C309.58 201.355 310.897 201.697 312.047 202.379C313.217 203.042 314.124 203.978 314.768 205.187C315.431 206.396 315.762 207.781 315.762 209.341ZM308.098 203.725C306.753 203.725 305.622 204.134 304.705 204.953C303.808 205.772 303.282 206.845 303.126 208.171H313.071C312.915 206.864 312.379 205.802 311.462 204.983C310.565 204.144 309.444 203.725 308.098 203.725ZM320.411 201.502H323.219V208.083H332.053V201.502H334.861V217.005H332.053V210.511H323.219V217.005H320.411V201.502ZM340.614 201.502H343.422V212.793L352.929 201.502H355.474V217.005H352.666V205.714L343.188 217.005H340.614V201.502ZM375.228 209.341C375.228 209.556 375.209 209.838 375.17 210.189H362.592C362.767 211.554 363.362 212.656 364.376 213.495C365.41 214.314 366.687 214.723 368.208 214.723C370.06 214.723 371.552 214.099 372.683 212.851L374.234 214.665C373.532 215.484 372.654 216.108 371.601 216.537C370.568 216.966 369.407 217.18 368.12 217.18C366.482 217.18 365.029 216.849 363.762 216.186C362.494 215.503 361.509 214.558 360.807 213.348C360.125 212.139 359.784 210.774 359.784 209.253C359.784 207.752 360.115 206.396 360.778 205.187C361.461 203.978 362.387 203.042 363.557 202.379C364.747 201.697 366.082 201.355 367.564 201.355C369.046 201.355 370.363 201.697 371.513 202.379C372.683 203.042 373.59 203.978 374.234 205.187C374.897 206.396 375.228 207.781 375.228 209.341ZM367.564 203.725C366.219 203.725 365.088 204.134 364.171 204.953C363.274 205.772 362.748 206.845 362.592 208.171H372.537C372.381 206.864 371.845 205.802 370.928 204.983C370.031 204.144 368.91 203.725 367.564 203.725ZM397.75 201.502V217.005H395.205V205.685L389.413 215.25H388.185L382.451 205.655V217.005H379.877V201.502H382.773L388.857 211.974L395.117 201.502H397.75Z" fill="black"/>
<rect x="304.158" y="486.585" width="19.9032" height="15.6774" rx="3.84767" stroke="white" stroke-width="1.69534"/>
<rect x="295.681" y="481.5" width="19.9032" height="15.6774" rx="3.84767" stroke="white" stroke-width="1.69534"/>
<path d="M335.576 494.871C335.95 495.342 336.356 495.716 336.796 495.993C337.251 496.269 337.82 496.407 338.503 496.407C338.796 496.407 339.089 496.375 339.381 496.31C339.69 496.245 339.967 496.139 340.211 495.993C340.455 495.846 340.65 495.668 340.796 495.456C340.942 495.228 341.016 494.96 341.016 494.651C341.016 494.342 340.942 494.09 340.796 493.895C340.666 493.7 340.487 493.537 340.259 493.407C340.032 493.261 339.772 493.147 339.479 493.066C339.186 492.984 338.885 492.911 338.576 492.846C338.04 492.732 337.527 492.602 337.039 492.456C336.552 492.309 336.121 492.122 335.747 491.895C335.389 491.651 335.096 491.342 334.868 490.968C334.657 490.594 334.551 490.114 334.551 489.529C334.551 488.976 334.673 488.488 334.917 488.065C335.161 487.642 335.486 487.293 335.893 487.016C336.3 486.74 336.755 486.528 337.259 486.382C337.763 486.235 338.284 486.162 338.82 486.162C339.633 486.162 340.381 486.325 341.064 486.65C341.764 486.975 342.308 487.504 342.699 488.236L341.113 489.285C340.869 488.878 340.544 488.553 340.137 488.309C339.747 488.049 339.267 487.919 338.698 487.919C338.438 487.919 338.17 487.951 337.893 488.016C337.633 488.081 337.397 488.179 337.186 488.309C336.974 488.439 336.796 488.61 336.649 488.821C336.519 489.016 336.454 489.244 336.454 489.504C336.454 489.748 336.527 489.96 336.674 490.138C336.836 490.301 337.048 490.447 337.308 490.577C337.584 490.708 337.893 490.821 338.235 490.919C338.593 491.017 338.958 491.098 339.332 491.163C339.837 491.26 340.316 491.391 340.772 491.553C341.227 491.7 341.625 491.903 341.967 492.163C342.308 492.423 342.577 492.748 342.772 493.139C342.967 493.529 343.065 494.009 343.065 494.578C343.065 495.228 342.935 495.781 342.674 496.237C342.414 496.692 342.065 497.066 341.625 497.359C341.203 497.635 340.715 497.839 340.162 497.969C339.625 498.099 339.072 498.164 338.503 498.164C337.527 498.164 336.682 498.017 335.966 497.725C335.267 497.416 334.633 496.855 334.064 496.042L335.576 494.871ZM354.085 489.309C353.679 488.821 353.239 488.472 352.768 488.26C352.296 488.032 351.776 487.919 351.207 487.919C350.572 487.919 350.011 488.032 349.524 488.26C349.036 488.472 348.629 488.772 348.304 489.163C347.995 489.553 347.759 490.008 347.596 490.529C347.434 491.033 347.353 491.578 347.353 492.163C347.353 492.748 347.442 493.301 347.621 493.822C347.816 494.326 348.076 494.773 348.401 495.163C348.743 495.554 349.15 495.863 349.621 496.09C350.093 496.302 350.621 496.407 351.207 496.407C352.459 496.407 353.426 495.936 354.11 494.993L355.524 496.334C354.971 496.969 354.321 497.432 353.573 497.725C352.825 498.017 352.036 498.164 351.207 498.164C350.329 498.164 349.524 498.017 348.792 497.725C348.06 497.432 347.434 497.017 346.913 496.481C346.409 495.944 346.011 495.31 345.718 494.578C345.442 493.846 345.304 493.041 345.304 492.163C345.304 491.301 345.442 490.504 345.718 489.773C346.011 489.041 346.417 488.406 346.938 487.87C347.458 487.333 348.076 486.918 348.792 486.626C349.524 486.317 350.329 486.162 351.207 486.162C352.052 486.162 352.849 486.309 353.597 486.601C354.362 486.894 355.028 487.349 355.598 487.967L354.085 489.309ZM357.974 489.163C357.974 488.642 357.958 488.154 357.925 487.699C357.893 487.244 357.876 486.829 357.876 486.455H359.681C359.681 486.764 359.69 487.073 359.706 487.382C359.722 487.691 359.73 488.008 359.73 488.333H359.779C359.909 488.057 360.088 487.789 360.316 487.528C360.56 487.268 360.844 487.04 361.169 486.845C361.495 486.634 361.861 486.471 362.267 486.357C362.674 486.227 363.113 486.162 363.584 486.162C363.715 486.162 363.845 486.17 363.975 486.187C364.105 486.203 364.235 486.235 364.365 486.284L364.243 488.211C363.918 488.114 363.576 488.065 363.219 488.065C362.048 488.065 361.194 488.447 360.657 489.211C360.137 489.96 359.877 490.992 359.877 492.309V497.871H357.974V489.163ZM376.561 495.798C375.878 496.676 375.13 497.294 374.317 497.652C373.504 497.993 372.561 498.164 371.487 498.164C370.593 498.164 369.788 498.009 369.073 497.7C368.357 497.375 367.747 496.944 367.243 496.407C366.755 495.871 366.373 495.237 366.097 494.505C365.836 493.773 365.706 492.992 365.706 492.163C365.706 491.285 365.853 490.48 366.145 489.748C366.438 489 366.845 488.366 367.365 487.845C367.885 487.309 368.503 486.894 369.219 486.601C369.934 486.309 370.715 486.162 371.561 486.162C372.358 486.162 373.089 486.301 373.756 486.577C374.423 486.837 374.992 487.227 375.464 487.748C375.951 488.252 376.325 488.878 376.586 489.626C376.846 490.358 376.976 491.195 376.976 492.139V492.748H367.755C367.788 493.236 367.902 493.708 368.097 494.163C368.308 494.602 368.577 494.993 368.902 495.334C369.227 495.659 369.609 495.92 370.048 496.115C370.487 496.31 370.967 496.407 371.487 496.407C372.317 496.407 373.016 496.261 373.585 495.968C374.154 495.676 374.667 495.245 375.122 494.676L376.561 495.798ZM374.927 491.139C374.894 490.163 374.577 489.382 373.976 488.797C373.374 488.211 372.545 487.919 371.487 487.919C370.43 487.919 369.577 488.211 368.926 488.797C368.276 489.382 367.885 490.163 367.755 491.139H374.927ZM390.36 495.798C389.677 496.676 388.929 497.294 388.116 497.652C387.302 497.993 386.359 498.164 385.286 498.164C384.392 498.164 383.587 498.009 382.871 497.7C382.155 497.375 381.546 496.944 381.041 496.407C380.554 495.871 380.171 495.237 379.895 494.505C379.635 493.773 379.505 492.992 379.505 492.163C379.505 491.285 379.651 490.48 379.944 489.748C380.236 489 380.643 488.366 381.163 487.845C381.684 487.309 382.302 486.894 383.017 486.601C383.733 486.309 384.513 486.162 385.359 486.162C386.156 486.162 386.888 486.301 387.555 486.577C388.221 486.837 388.79 487.227 389.262 487.748C389.75 488.252 390.124 488.878 390.384 489.626C390.644 490.358 390.774 491.195 390.774 492.139V492.748H381.554C381.586 493.236 381.7 493.708 381.895 494.163C382.107 494.602 382.375 494.993 382.7 495.334C383.025 495.659 383.408 495.92 383.847 496.115C384.286 496.31 384.766 496.407 385.286 496.407C386.115 496.407 386.815 496.261 387.384 495.968C387.953 495.676 388.465 495.245 388.921 494.676L390.36 495.798ZM388.725 491.139C388.693 490.163 388.376 489.382 387.774 488.797C387.172 488.211 386.343 487.919 385.286 487.919C384.229 487.919 383.375 488.211 382.725 488.797C382.074 489.382 381.684 490.163 381.554 491.139H388.725ZM393.962 489.163C393.962 488.642 393.945 488.154 393.913 487.699C393.88 487.244 393.864 486.829 393.864 486.455H395.669C395.669 486.764 395.677 487.073 395.694 487.382C395.71 487.691 395.718 488.008 395.718 488.333H395.767C395.897 488.057 396.076 487.789 396.304 487.528C396.547 487.268 396.832 487.04 397.157 486.845C397.483 486.634 397.848 486.471 398.255 486.357C398.662 486.227 399.101 486.162 399.572 486.162C400.32 486.162 400.963 486.276 401.499 486.504C402.052 486.731 402.508 487.049 402.865 487.455C403.223 487.862 403.483 488.358 403.646 488.943C403.825 489.512 403.914 490.138 403.914 490.821V497.871H402.012V491.017C402.012 490.057 401.8 489.301 401.377 488.748C400.955 488.195 400.296 487.919 399.401 487.919C398.784 487.919 398.247 488.024 397.792 488.236C397.352 488.447 396.987 488.748 396.694 489.138C396.417 489.529 396.206 489.992 396.06 490.529C395.929 491.065 395.864 491.659 395.864 492.309V497.871H393.962V489.163ZM408.004 494.871C408.378 495.342 408.785 495.716 409.224 495.993C409.679 496.269 410.248 496.407 410.931 496.407C411.224 496.407 411.517 496.375 411.809 496.31C412.118 496.245 412.395 496.139 412.639 495.993C412.883 495.846 413.078 495.668 413.224 495.456C413.371 495.228 413.444 494.96 413.444 494.651C413.444 494.342 413.371 494.09 413.224 493.895C413.094 493.7 412.915 493.537 412.688 493.407C412.46 493.261 412.2 493.147 411.907 493.066C411.614 492.984 411.313 492.911 411.005 492.846C410.468 492.732 409.956 492.602 409.468 492.456C408.98 492.309 408.549 492.122 408.175 491.895C407.817 491.651 407.524 491.342 407.297 490.968C407.085 490.594 406.98 490.114 406.98 489.529C406.98 488.976 407.102 488.488 407.346 488.065C407.589 487.642 407.915 487.293 408.321 487.016C408.728 486.74 409.183 486.528 409.687 486.382C410.191 486.235 410.712 486.162 411.248 486.162C412.062 486.162 412.81 486.325 413.493 486.65C414.192 486.975 414.737 487.504 415.127 488.236L413.541 489.285C413.297 488.878 412.972 488.553 412.566 488.309C412.175 488.049 411.696 487.919 411.126 487.919C410.866 487.919 410.598 487.951 410.322 488.016C410.061 488.081 409.826 488.179 409.614 488.309C409.403 488.439 409.224 488.61 409.077 488.821C408.947 489.016 408.882 489.244 408.882 489.504C408.882 489.748 408.955 489.96 409.102 490.138C409.264 490.301 409.476 490.447 409.736 490.577C410.013 490.708 410.322 490.821 410.663 490.919C411.021 491.017 411.387 491.098 411.761 491.163C412.265 491.26 412.745 491.391 413.2 491.553C413.655 491.7 414.054 491.903 414.395 492.163C414.737 492.423 415.005 492.748 415.2 493.139C415.395 493.529 415.493 494.009 415.493 494.578C415.493 495.228 415.363 495.781 415.103 496.237C414.842 496.692 414.493 497.066 414.054 497.359C413.631 497.635 413.143 497.839 412.59 497.969C412.053 498.099 411.501 498.164 410.931 498.164C409.956 498.164 409.11 498.017 408.394 497.725C407.695 497.416 407.061 496.855 406.492 496.042L408.004 494.871Z" fill="white"/>
<path d="M168.247 486.583C169.199 486.583 170.053 486.793 170.808 487.214C171.563 487.635 172.15 488.222 172.571 488.977C173.004 489.732 173.221 490.604 173.221 491.594C173.221 492.584 173.004 493.462 172.571 494.229C172.15 494.984 171.563 495.572 170.808 495.993C170.053 496.413 169.199 496.624 168.247 496.624C167.541 496.624 166.892 496.487 166.298 496.215C165.716 495.943 165.221 495.547 164.813 495.027V500.113H163.031V486.676H164.739V488.235C165.135 487.69 165.636 487.282 166.242 487.01C166.849 486.725 167.517 486.583 168.247 486.583ZM168.098 495.065C168.729 495.065 169.292 494.922 169.787 494.638C170.294 494.341 170.69 493.932 170.975 493.413C171.272 492.881 171.42 492.274 171.42 491.594C171.42 490.913 171.272 490.313 170.975 489.794C170.69 489.262 170.294 488.853 169.787 488.569C169.292 488.284 168.729 488.142 168.098 488.142C167.48 488.142 166.917 488.29 166.409 488.587C165.914 488.872 165.518 489.274 165.221 489.794C164.937 490.313 164.795 490.913 164.795 491.594C164.795 492.274 164.937 492.881 165.221 493.413C165.506 493.932 165.902 494.341 166.409 494.638C166.917 494.922 167.48 495.065 168.098 495.065ZM180.081 496.624C179.104 496.624 178.225 496.407 177.446 495.974C176.666 495.541 176.054 494.947 175.608 494.192C175.175 493.425 174.959 492.559 174.959 491.594C174.959 490.629 175.175 489.769 175.608 489.014C176.054 488.247 176.666 487.653 177.446 487.232C178.225 486.799 179.104 486.583 180.081 486.583C181.058 486.583 181.931 486.799 182.698 487.232C183.477 487.653 184.084 488.247 184.517 489.014C184.962 489.769 185.185 490.629 185.185 491.594C185.185 492.559 184.962 493.425 184.517 494.192C184.084 494.947 183.477 495.541 182.698 495.974C181.931 496.407 181.058 496.624 180.081 496.624ZM180.081 495.065C180.712 495.065 181.275 494.922 181.77 494.638C182.277 494.341 182.673 493.932 182.958 493.413C183.242 492.881 183.385 492.274 183.385 491.594C183.385 490.913 183.242 490.313 182.958 489.794C182.673 489.262 182.277 488.853 181.77 488.569C181.275 488.284 180.712 488.142 180.081 488.142C179.45 488.142 178.881 488.284 178.373 488.569C177.879 488.853 177.483 489.262 177.186 489.794C176.901 490.313 176.759 490.913 176.759 491.594C176.759 492.274 176.901 492.881 177.186 493.413C177.483 493.932 177.879 494.341 178.373 494.638C178.881 494.922 179.45 495.065 180.081 495.065ZM202.447 486.676L198.773 496.512H197.065L194.225 489.051L191.349 496.512H189.641L185.985 486.676H187.674L190.532 494.508L193.502 486.676H195.005L197.919 494.545L200.851 486.676H202.447ZM213.059 491.65C213.059 491.786 213.047 491.965 213.022 492.188H205.041C205.153 493.054 205.53 493.753 206.173 494.285C206.829 494.805 207.64 495.065 208.605 495.065C209.78 495.065 210.727 494.669 211.444 493.877L212.428 495.027C211.983 495.547 211.426 495.943 210.758 496.215C210.102 496.487 209.366 496.624 208.549 496.624C207.51 496.624 206.588 496.413 205.784 495.993C204.979 495.559 204.355 494.959 203.909 494.192C203.476 493.425 203.26 492.559 203.26 491.594C203.26 490.641 203.47 489.781 203.891 489.014C204.324 488.247 204.911 487.653 205.654 487.232C206.409 486.799 207.256 486.583 208.196 486.583C209.137 486.583 209.972 486.799 210.702 487.232C211.444 487.653 212.02 488.247 212.428 489.014C212.849 489.781 213.059 490.66 213.059 491.65ZM208.196 488.086C207.343 488.086 206.625 488.346 206.044 488.866C205.474 489.385 205.14 490.066 205.041 490.907H211.352C211.253 490.078 210.912 489.404 210.331 488.884C209.762 488.352 209.05 488.086 208.196 488.086ZM217.426 488.327C217.735 487.758 218.193 487.325 218.8 487.028C219.406 486.731 220.142 486.583 221.008 486.583V488.309C220.909 488.297 220.773 488.29 220.6 488.29C219.635 488.29 218.874 488.581 218.317 489.163C217.773 489.732 217.5 490.548 217.5 491.613V496.512H215.719V486.676H217.426V488.327ZM232.189 491.65C232.189 491.786 232.177 491.965 232.152 492.188H224.171C224.283 493.054 224.66 493.753 225.303 494.285C225.959 494.805 226.77 495.065 227.735 495.065C228.91 495.065 229.857 494.669 230.574 493.877L231.558 495.027C231.113 495.547 230.556 495.943 229.888 496.215C229.232 496.487 228.496 496.624 227.679 496.624C226.64 496.624 225.718 496.413 224.914 495.993C224.109 495.559 223.485 494.959 223.039 494.192C222.606 493.425 222.39 492.559 222.39 491.594C222.39 490.641 222.6 489.781 223.021 489.014C223.454 488.247 224.041 487.653 224.784 487.232C225.539 486.799 226.386 486.583 227.326 486.583C228.267 486.583 229.102 486.799 229.832 487.232C230.574 487.653 231.15 488.247 231.558 489.014C231.979 489.781 232.189 490.66 232.189 491.65ZM227.326 488.086C226.473 488.086 225.755 488.346 225.174 488.866C224.604 489.385 224.27 490.066 224.171 490.907H230.482C230.383 490.078 230.042 489.404 229.461 488.884C228.892 488.352 228.18 488.086 227.326 488.086ZM244.128 482.741V496.512H242.421V494.953C242.025 495.498 241.524 495.912 240.918 496.197C240.311 496.481 239.643 496.624 238.913 496.624C237.961 496.624 237.107 496.413 236.352 495.993C235.597 495.572 235.003 494.984 234.57 494.229C234.15 493.462 233.939 492.584 233.939 491.594C233.939 490.604 234.15 489.732 234.57 488.977C235.003 488.222 235.597 487.635 236.352 487.214C237.107 486.793 237.961 486.583 238.913 486.583C239.618 486.583 240.268 486.719 240.862 486.991C241.456 487.251 241.951 487.641 242.347 488.16V482.741H244.128ZM239.062 495.065C239.68 495.065 240.243 494.922 240.751 494.638C241.258 494.341 241.654 493.932 241.938 493.413C242.223 492.881 242.365 492.274 242.365 491.594C242.365 490.913 242.223 490.313 241.938 489.794C241.654 489.262 241.258 488.853 240.751 488.569C240.243 488.284 239.68 488.142 239.062 488.142C238.431 488.142 237.862 488.284 237.354 488.569C236.859 488.853 236.463 489.262 236.166 489.794C235.882 490.313 235.74 490.913 235.74 491.594C235.74 492.274 235.882 492.881 236.166 493.413C236.463 493.932 236.859 494.341 237.354 494.638C237.862 494.922 238.431 495.065 239.062 495.065ZM258.07 486.583C259.023 486.583 259.877 486.793 260.631 487.214C261.386 487.635 261.974 488.222 262.395 488.977C262.828 489.732 263.044 490.604 263.044 491.594C263.044 492.584 262.828 493.462 262.395 494.229C261.974 494.984 261.386 495.572 260.631 495.993C259.877 496.413 259.023 496.624 258.07 496.624C257.34 496.624 256.672 496.481 256.066 496.197C255.46 495.912 254.958 495.498 254.563 494.953V496.512H252.855V482.741H254.637V488.16C255.033 487.641 255.528 487.251 256.122 486.991C256.715 486.719 257.365 486.583 258.07 486.583ZM257.922 495.065C258.553 495.065 259.116 494.922 259.611 494.638C260.118 494.341 260.514 493.932 260.798 493.413C261.095 492.881 261.244 492.274 261.244 491.594C261.244 490.913 261.095 490.313 260.798 489.794C260.514 489.262 260.118 488.853 259.611 488.569C259.116 488.284 258.553 488.142 257.922 488.142C257.303 488.142 256.74 488.284 256.233 488.569C255.726 488.853 255.33 489.262 255.045 489.794C254.76 490.313 254.618 490.913 254.618 491.594C254.618 492.274 254.76 492.881 255.045 493.413C255.33 493.932 255.726 494.341 256.233 494.638C256.74 494.922 257.303 495.065 257.922 495.065ZM274.124 486.676L269.354 497.496C268.934 498.498 268.439 499.203 267.87 499.612C267.313 500.02 266.638 500.224 265.847 500.224C265.364 500.224 264.894 500.144 264.436 499.983C263.991 499.834 263.619 499.612 263.322 499.315L264.083 497.978C264.591 498.461 265.178 498.702 265.847 498.702C266.28 498.702 266.638 498.585 266.923 498.35C267.22 498.127 267.486 497.737 267.721 497.18L268.037 496.494L263.694 486.676H265.55L268.983 494.545L272.379 486.676H274.124Z" fill="white"/>
<rect x="178.433" y="266.188" width="219.385" height="70.5689" rx="8.77541" fill="#6582EB"/>
<path d="M228.324 293.283C230.446 293.283 232.115 293.79 233.332 294.804C234.549 295.818 235.158 297.214 235.158 298.993C235.158 300.771 234.549 302.167 233.332 303.181C232.115 304.196 230.446 304.703 228.324 304.703H224.276V309.664H221.936V293.283H228.324ZM228.254 302.667C229.736 302.667 230.867 302.355 231.647 301.731C232.427 301.091 232.817 300.178 232.817 298.993C232.817 297.807 232.427 296.902 231.647 296.278C230.867 295.639 229.736 295.319 228.254 295.319H224.276V302.667H228.254ZM242.581 297.144C244.297 297.144 245.607 297.565 246.512 298.408C247.433 299.25 247.893 300.506 247.893 302.175V309.664H245.763V308.025C245.389 308.603 244.851 309.047 244.149 309.359C243.462 309.656 242.643 309.804 241.692 309.804C240.303 309.804 239.188 309.469 238.345 308.798C237.518 308.127 237.105 307.245 237.105 306.153C237.105 305.061 237.503 304.188 238.298 303.532C239.094 302.862 240.358 302.526 242.089 302.526H245.646V302.082C245.646 301.114 245.366 300.373 244.804 299.859C244.242 299.344 243.415 299.086 242.323 299.086C241.59 299.086 240.873 299.211 240.171 299.461C239.469 299.695 238.876 300.015 238.392 300.42L237.456 298.735C238.096 298.22 238.86 297.83 239.749 297.565C240.639 297.284 241.582 297.144 242.581 297.144ZM242.066 308.072C242.924 308.072 243.665 307.885 244.289 307.511C244.913 307.121 245.366 306.575 245.646 305.873V304.141H242.183C240.28 304.141 239.328 304.781 239.328 306.06C239.328 306.684 239.57 307.175 240.054 307.534C240.537 307.893 241.208 308.072 242.066 308.072ZM258.683 303.205C259.509 303.423 260.149 303.774 260.602 304.258C261.054 304.742 261.28 305.342 261.28 306.06C261.28 306.793 261.031 307.448 260.531 308.025C260.032 308.587 259.338 309.032 258.449 309.359C257.575 309.671 256.592 309.827 255.5 309.827C254.58 309.827 253.675 309.71 252.786 309.476C251.912 309.227 251.132 308.876 250.445 308.423L251.124 306.715C251.717 307.089 252.396 307.386 253.16 307.604C253.924 307.807 254.697 307.908 255.477 307.908C256.538 307.908 257.38 307.729 258.004 307.37C258.644 306.996 258.963 306.497 258.963 305.873C258.963 305.295 258.706 304.851 258.191 304.539C257.692 304.227 256.982 304.071 256.062 304.071H253.792V302.456H255.898C256.74 302.456 257.403 302.308 257.887 302.011C258.371 301.715 258.612 301.309 258.612 300.795C258.612 300.233 258.324 299.796 257.747 299.484C257.185 299.172 256.421 299.016 255.453 299.016C254.221 299.016 252.918 299.336 251.545 299.976L250.937 298.244C252.45 297.479 254.034 297.097 255.687 297.097C256.686 297.097 257.583 297.238 258.378 297.518C259.174 297.799 259.798 298.197 260.251 298.712C260.703 299.227 260.929 299.812 260.929 300.467C260.929 301.075 260.726 301.621 260.321 302.105C259.915 302.589 259.369 302.955 258.683 303.205ZM271.505 297.144C272.706 297.144 273.783 297.409 274.735 297.94C275.686 298.47 276.427 299.211 276.958 300.163C277.504 301.114 277.777 302.214 277.777 303.462C277.777 304.71 277.504 305.818 276.958 306.785C276.427 307.737 275.686 308.478 274.735 309.008C273.783 309.539 272.706 309.804 271.505 309.804C270.616 309.804 269.797 309.632 269.048 309.289C268.315 308.946 267.691 308.447 267.176 307.791V314.203H264.929V297.261H267.082V299.227C267.582 298.54 268.213 298.025 268.978 297.682C269.742 297.323 270.585 297.144 271.505 297.144ZM271.318 307.838C272.114 307.838 272.823 307.659 273.447 307.3C274.087 306.926 274.586 306.411 274.945 305.756C275.32 305.085 275.507 304.32 275.507 303.462C275.507 302.604 275.32 301.848 274.945 301.192C274.586 300.522 274.087 300.007 273.447 299.648C272.823 299.289 272.114 299.11 271.318 299.11C270.538 299.11 269.828 299.297 269.188 299.671C268.564 300.03 268.065 300.537 267.691 301.192C267.332 301.848 267.153 302.604 267.153 303.462C267.153 304.32 267.332 305.085 267.691 305.756C268.05 306.411 268.549 306.926 269.188 307.3C269.828 307.659 270.538 307.838 271.318 307.838ZM292.484 303.532C292.484 303.704 292.468 303.93 292.437 304.211H282.374C282.515 305.303 282.991 306.185 283.802 306.855C284.629 307.511 285.651 307.838 286.867 307.838C288.349 307.838 289.543 307.339 290.448 306.341L291.688 307.791C291.126 308.447 290.424 308.946 289.582 309.289C288.755 309.632 287.827 309.804 286.797 309.804C285.487 309.804 284.325 309.539 283.31 309.008C282.296 308.462 281.509 307.706 280.947 306.738C280.401 305.771 280.128 304.679 280.128 303.462C280.128 302.261 280.393 301.177 280.924 300.21C281.47 299.242 282.211 298.493 283.147 297.963C284.098 297.417 285.167 297.144 286.353 297.144C287.538 297.144 288.591 297.417 289.512 297.963C290.448 298.493 291.173 299.242 291.688 300.21C292.218 301.177 292.484 302.284 292.484 303.532ZM286.353 299.039C285.276 299.039 284.371 299.367 283.638 300.022C282.92 300.678 282.499 301.536 282.374 302.596H290.331C290.206 301.551 289.777 300.701 289.044 300.046C288.326 299.375 287.429 299.039 286.353 299.039ZM313.871 297.261V309.664H296.203V297.261H298.449V307.698H303.925V297.261H306.172V307.698H311.624V297.261H313.871ZM318.467 297.261H320.713V306.294L328.319 297.261H330.355V309.664H328.108V300.631L320.526 309.664H318.467V297.261ZM344.192 299.227H339.653V309.664H337.406V299.227H332.866V297.261H344.192V299.227ZM352.457 301.473C354.033 301.489 355.234 301.848 356.061 302.55C356.887 303.252 357.301 304.242 357.301 305.522C357.301 306.863 356.848 307.901 355.944 308.634C355.054 309.352 353.775 309.703 352.106 309.687L346.724 309.664V297.261H348.97V301.45L352.457 301.473ZM351.919 307.979C352.933 307.994 353.697 307.791 354.212 307.37C354.742 306.949 355.008 306.325 355.008 305.498C355.008 304.687 354.75 304.094 354.235 303.72C353.736 303.345 352.964 303.15 351.919 303.135L348.97 303.088V307.955L351.919 307.979Z" fill="white"/>
<path d="M233.113 380.1C234.096 380.412 234.86 380.919 235.406 381.621C235.968 382.308 236.249 383.119 236.249 384.055C236.249 385.038 235.929 385.896 235.289 386.629C234.65 387.347 233.792 387.901 232.715 388.291C231.654 388.681 230.492 388.876 229.228 388.876C228.136 388.876 227.036 388.727 225.929 388.431C224.837 388.119 223.823 387.659 222.887 387.05L223.869 384.827C224.587 385.311 225.383 385.685 226.256 385.95C227.13 386.2 227.996 386.325 228.854 386.325C230.086 386.325 231.108 386.083 231.919 385.599C232.746 385.116 233.16 384.453 233.16 383.61C233.16 382.893 232.863 382.347 232.27 381.972C231.678 381.598 230.859 381.411 229.813 381.411H225.999V379.024H229.579C230.484 379.024 231.194 378.837 231.709 378.462C232.224 378.088 232.481 377.581 232.481 376.941C232.481 376.177 232.13 375.584 231.428 375.163C230.742 374.741 229.86 374.531 228.784 374.531C228.05 374.531 227.294 374.64 226.514 374.858C225.734 375.061 225.001 375.365 224.314 375.771L223.355 373.314C224.197 372.861 225.086 372.526 226.022 372.308C226.974 372.074 227.918 371.957 228.854 371.957C230.071 371.957 231.186 372.144 232.2 372.518C233.23 372.893 234.049 373.431 234.657 374.133C235.266 374.819 235.57 375.631 235.57 376.567C235.57 377.378 235.352 378.088 234.915 378.696C234.478 379.305 233.877 379.773 233.113 380.1ZM244.262 376.005C246.102 376.005 247.506 376.45 248.474 377.339C249.457 378.213 249.948 379.539 249.948 381.317V388.642H247.187V387.121C246.828 387.667 246.313 388.088 245.642 388.384C244.987 388.665 244.191 388.805 243.255 388.805C242.319 388.805 241.5 388.649 240.798 388.337C240.096 388.01 239.55 387.565 239.16 387.004C238.786 386.426 238.598 385.779 238.598 385.061C238.598 383.938 239.012 383.041 239.839 382.37C240.681 381.684 241.999 381.34 243.793 381.34H247.023V381.153C247.023 380.28 246.758 379.609 246.227 379.141C245.712 378.673 244.94 378.439 243.911 378.439C243.208 378.439 242.514 378.548 241.828 378.766C241.157 378.985 240.588 379.289 240.12 379.679L238.973 377.549C239.628 377.05 240.416 376.668 241.336 376.403C242.257 376.138 243.232 376.005 244.262 376.005ZM243.864 386.676C244.597 386.676 245.244 386.512 245.806 386.184C246.383 385.841 246.789 385.358 247.023 384.734V383.283H244.004C242.319 383.283 241.477 383.837 241.477 384.944C241.477 385.475 241.687 385.896 242.109 386.208C242.53 386.52 243.115 386.676 243.864 386.676ZM265.783 376.145V388.642H262.881V378.626H256.727V388.642H253.802V376.145H265.783ZM276.891 376.005C278.108 376.005 279.192 376.27 280.143 376.801C281.111 377.331 281.867 378.08 282.413 379.047C282.959 380.014 283.232 381.13 283.232 382.394C283.232 383.657 282.959 384.78 282.413 385.763C281.867 386.731 281.111 387.479 280.143 388.01C279.192 388.54 278.108 388.805 276.891 388.805C275.206 388.805 273.872 388.244 272.889 387.121V393.181H269.964V376.145H272.749V377.783C273.232 377.191 273.825 376.746 274.527 376.45C275.245 376.153 276.033 376.005 276.891 376.005ZM276.563 386.301C277.64 386.301 278.521 385.943 279.207 385.225C279.909 384.507 280.26 383.564 280.26 382.394C280.26 381.223 279.909 380.28 279.207 379.562C278.521 378.844 277.64 378.486 276.563 378.486C275.861 378.486 275.229 378.649 274.668 378.977C274.106 379.289 273.661 379.741 273.334 380.334C273.006 380.927 272.842 381.613 272.842 382.394C272.842 383.174 273.006 383.86 273.334 384.453C273.661 385.046 274.106 385.506 274.668 385.833C275.229 386.145 275.861 386.301 276.563 386.301ZM298.078 382.464C298.078 382.667 298.063 382.955 298.031 383.33H288.226C288.398 384.25 288.843 384.983 289.56 385.529C290.293 386.06 291.198 386.325 292.275 386.325C293.648 386.325 294.779 385.872 295.668 384.968L297.236 386.77C296.674 387.44 295.964 387.947 295.106 388.291C294.248 388.634 293.281 388.805 292.205 388.805C290.832 388.805 289.623 388.532 288.577 387.986C287.532 387.44 286.721 386.684 286.144 385.716C285.582 384.734 285.301 383.626 285.301 382.394C285.301 381.177 285.574 380.085 286.12 379.117C286.682 378.135 287.454 377.37 288.437 376.824C289.42 376.278 290.527 376.005 291.76 376.005C292.977 376.005 294.061 376.278 295.013 376.824C295.98 377.354 296.729 378.111 297.259 379.094C297.805 380.061 298.078 381.184 298.078 382.464ZM291.76 378.345C290.824 378.345 290.028 378.626 289.373 379.188C288.733 379.734 288.343 380.467 288.203 381.387H295.293C295.169 380.482 294.786 379.749 294.147 379.188C293.507 378.626 292.712 378.345 291.76 378.345ZM310.953 378.626H306.577V388.642H303.652V378.626H299.253V376.145H310.953V378.626ZM313.309 376.145H316.234V384.383L323.137 376.145H325.805V388.642H322.88V380.404L316 388.642H313.309V376.145ZM339.873 378.626H335.497V388.642H332.572V378.626H328.172V376.145H339.873V378.626ZM348.5 380.264C350.091 380.264 351.308 380.623 352.151 381.34C353.009 382.058 353.438 383.072 353.438 384.383C353.438 385.755 352.97 386.816 352.034 387.565C351.098 388.314 349.779 388.681 348.079 388.665L342.229 388.642V376.145H345.154V380.241L348.5 380.264ZM347.821 386.512C348.679 386.528 349.335 386.348 349.787 385.974C350.24 385.599 350.466 385.053 350.466 384.336C350.466 383.634 350.247 383.119 349.81 382.791C349.374 382.464 348.711 382.292 347.821 382.277L345.154 382.253V386.489L347.821 386.512Z" fill="#454545"/>
<path d="M378.296 350.595L379.235 315.861C379.294 313.667 381.913 312.567 383.522 314.061L409.929 338.581C411.679 340.207 410.436 343.131 408.051 342.998L393.351 342.182C392.587 342.139 391.845 342.441 391.328 343.005L382.728 352.388C381.132 354.128 378.233 352.955 378.296 350.595Z" fill="#1ACF7D" stroke="#1ACF7D" stroke-width="2.55144"/>
<rect x="395.972" y="381.662" width="117.366" height="45.9259" rx="7.65432" fill="#1ACF7D"/>
<path d="M410.847 412.765V394.7H414.036V401.768C414.377 401.768 414.708 401.785 415.032 401.819C415.355 401.836 415.678 401.861 416.001 401.896L422.125 394.7H425.62L419.165 402.635C420.985 403.35 422.439 404.523 423.528 406.156C424.633 407.789 425.424 409.992 425.901 412.765H422.405C422.133 411.319 421.776 410.069 421.334 409.014C420.908 407.959 420.364 407.092 419.701 406.412C419.037 405.731 418.238 405.238 417.302 404.932C416.367 404.626 415.278 404.489 414.036 404.523V412.765H410.847ZM437.028 412.765L433.762 404.064L430.318 412.765H427.052L432.104 400.416H435.523L440.294 412.765H437.028ZM452.001 404.319L445.623 412.765H442.535V400.416H445.623V408.657L452.001 400.416H455.089V412.765H452.001V404.319ZM467.811 405.391C467.794 404.506 467.514 403.767 466.969 403.171C466.442 402.576 465.668 402.278 464.648 402.278C464.154 402.278 463.703 402.363 463.295 402.533C462.887 402.703 462.53 402.933 462.224 403.222C461.917 403.494 461.671 403.826 461.484 404.217C461.314 404.592 461.212 404.983 461.178 405.391H467.811ZM470.72 406.514C470.72 406.65 470.72 406.794 470.72 406.947C470.72 407.1 470.711 407.254 470.694 407.407H461.152C461.169 407.866 461.28 408.3 461.484 408.708C461.688 409.116 461.951 409.465 462.275 409.754C462.615 410.043 462.998 410.273 463.423 410.443C463.848 410.613 464.307 410.698 464.801 410.698C465.566 410.698 466.229 410.536 466.791 410.213C467.352 409.89 467.786 409.499 468.092 409.04L470.261 410.494C469.614 411.378 468.823 412.042 467.888 412.484C466.969 412.909 465.932 413.122 464.775 413.122C463.857 413.122 462.989 412.969 462.173 412.663C461.373 412.356 460.676 411.923 460.08 411.361C459.485 410.8 459.017 410.12 458.677 409.32C458.337 408.521 458.167 407.619 458.167 406.616C458.167 405.646 458.328 404.762 458.652 403.962C458.992 403.146 459.451 402.448 460.029 401.87C460.625 401.292 461.314 400.849 462.096 400.543C462.879 400.22 463.729 400.058 464.648 400.058C465.583 400.058 466.425 400.22 467.173 400.543C467.922 400.849 468.56 401.283 469.087 401.844C469.614 402.406 470.014 403.086 470.286 403.886C470.575 404.668 470.72 405.544 470.72 406.514ZM476.842 412.765H473.781V400.416H476.842V405.161H482.277V400.416H485.339V412.765H482.277V407.56H476.842V412.765ZM487.599 400.416H498.519V402.84H494.513V412.765H491.452V402.84H487.599V400.416Z" fill="white"/>
</svg>
